<svg id="Layer_1" data-name="Layer 1" xmlns="http://www.w3.org/2000/svg" viewBox="0 0 600 600"><defs><style>.cls-1{fill:#414345;}.cls-2{fill:#fbe166;}.cls-3{fill:#f9af98;}.cls-4{fill:#ea8f28;}</style></defs><path class="cls-1" d="M295.7,601.84c-46.55,0-93.1-.08-139.65.1-5.86,0-7.12-.72-5.77-7.23,6.82-32.81,12.66-65.81,19.27-98.66.92-4.57-.23-7-3.35-9.74-19.26-17.13-34.88-36.61-40.62-62.6-9.07-41-7.66-80.82,13.6-118.29,3.82-6.73,1.23-13.41,1-20.14-1-35-4.72-70.14,5.73-104.44,6-19.7,17.81-24.06,36-13.71C202.78,179,218,196.9,233.17,214.89c2,2.32,3.85,4.69,5.73,7.08,11.62,14.81,11.57,14.49,29.62,12a205.47,205.47,0,0,1,64.25,1.34c4.66.82,7.3.22,10.33-3.76,16.44-21.58,33.95-42.24,55.28-59.3a54.46,54.46,0,0,1,17.1-9.76c9.08-2.93,14.77-.92,19.71,7.25,6.66,11,8.63,23.52,10.2,35.94,2.17,17.17,4.23,34.37,3.49,51.79-.29,7.06-1,14.2-1.67,21.09-1.29,13.55,2.14,24.78,8.25,36.59,14.45,27.95,15.16,58.31,12.33,88.84-2,21-6.9,41.14-18.9,59-5.58,8.32-11.78,16.22-19.55,22.42-6.31,5-6.63,11.3-5,17.58,7.94,30.78,11,62.45,17.74,93.44,1.46,6.73-3.12,5.39-6.72,5.39Q365.53,601.86,295.7,601.84Zm15.44-202.79a141.94,141.94,0,0,0-31.36-1.59c-10.47.47-14.08,6.81-9.48,16.21a24,24,0,0,0,6.62,8.36c3.51,2.79,6.63,5.72,7.6,10.42.54,2.56,2.44,5.08,5,4.55,3.18-.65,8,.09,9.05-3.86,1.51-5.91,6.6-7.82,10.29-11.33a20.17,20.17,0,0,0,9-9.13C321.18,405.58,318.9,401,311.14,399.05Zm-89.21-11.67c7.21-3.34,17.17-3.52,25.38-8.87,6.34-4.13,9.43-10.51,8.33-17.82-2.56-17-11.58-30-27.77-36.41-15.59-6.13-30-1.78-42.33,8.9-5.21,4.5-8.37,10.58-7.26,17.7C181.62,372.43,203.28,385.12,221.93,387.38Zm142.74-3.06c18.35.61,31.23-7.9,40.08-22.61,8-13.26,4.2-25.94-9.19-33.83-19.44-11.47-45.32-5.14-58.41,14.27-12.5,18.55-6.63,34.21,15,40.36C356.44,383.74,360.8,383.88,364.67,384.32Z"/><path class="cls-2" d="M221.93,387.38c-18.65-2.26-40.31-14.95-43.65-36.5-1.11-7.12,2.05-13.2,7.26-17.7,12.37-10.68,26.74-15,42.33-8.9,16.19,6.37,25.21,19.37,27.77,36.41,1.1,7.31-2,13.69-8.33,17.82C239.1,383.86,229.14,384,221.93,387.38ZM201.3,355.8c.39,4.07.6,8.47,2.54,12.54C208,377,218.31,378.81,225,372.1c7.79-7.79,9.43-26.31,3.15-35.52-5.78-8.49-16.19-8.53-21.89,0C202.45,342.27,202,348.92,201.3,355.8Z"/><path class="cls-2" d="M364.67,384.32c-3.87-.44-8.23-.58-12.57-1.81-21.58-6.15-27.45-21.81-15-40.36,13.09-19.41,39-25.74,58.41-14.27,13.39,7.89,17.17,20.57,9.19,33.83C395.9,376.42,383,384.93,364.67,384.32Zm21.07-28.4a35.24,35.24,0,0,0-3.39-16.9c-2.61-5.27-6.45-9.08-12.83-8.81s-10.2,4.19-12.26,9.65a32.76,32.76,0,0,0,1.05,25.79c2.95,6.54,7.61,11,15.4,10.14s10-6.93,11.58-13.27C385.82,360.42,385.61,358.13,385.74,355.92Z"/><path class="cls-3" d="M308.89,421.81c-3.69,3.51-8.78,5.42-10.29,11.33-1,3.95-5.87,3.21-9.05,3.86-2.59.53-4.49-2-5-4.55-1-4.7-4.09-7.63-7.6-10.42a24,24,0,0,1-6.62-8.36c-4.6-9.4-1-15.74,9.48-16.21a141.94,141.94,0,0,1,31.36,1.59C316.7,407.26,311.19,414.38,308.89,421.81Z"/><path class="cls-4" d="M308.89,421.81c2.3-7.43,7.81-14.55,2.25-22.76,7.76,2,10,6.53,6.72,13.63A20.17,20.17,0,0,1,308.89,421.81Z"/><path class="cls-1" d="M201.3,355.8c.7-6.88,1.15-13.53,5-19.24,5.7-8.51,16.11-8.47,21.89,0,6.28,9.21,4.64,27.73-3.15,35.52-6.71,6.71-17.06,4.88-21.18-3.76C201.9,364.27,201.69,359.87,201.3,355.8Z"/><path class="cls-1" d="M385.74,355.92c-.13,2.21.08,4.5-.45,6.6-1.58,6.34-3.73,12.46-11.58,13.27s-12.45-3.6-15.4-10.14a32.76,32.76,0,0,1-1.05-25.79c2.06-5.46,5.94-9.39,12.26-9.65s10.22,3.54,12.83,8.81A35.24,35.24,0,0,1,385.74,355.92Z"/></svg>