<svg id="Layer_1" data-name="Layer 1" xmlns="http://www.w3.org/2000/svg" viewBox="0 0 600 600"><defs><style>.cls-1{fill:#a66f4a;}.cls-2{fill:#976045;}.cls-3{fill:#f4ebdf;}.cls-4{fill:#f2d5b8;}.cls-5{fill:#f9af98;}.cls-6{fill:#414345;}.cls-7{fill:#f8f8f8;}</style></defs><path class="cls-1" d="M219.82,239.64a.73.73,0,0,1,.92.19c10.39,3.71,21.08.91,31.62,1.44C272.17,280,273,319.68,258.11,360.1c-13.32,2.32-22.33,11-31.15,20.37-30.58,32.47-52.69,69.66-64,113-2.88,1-2.91,2.62-1,4.65-.16,1.14-.31,2.28-.47,3.42-2.9,1.45-5.17,0-7.38-1.65l-.09-.08c-1.81-3.48-2.93-7.62-7.85-8.06a2.11,2.11,0,0,1-.31-1.41c0-1.46-.11-2.86-1.82-3.41l.1.16a30.46,30.46,0,0,0-9.8-19.66l.09.12c.77-4.23-1-8-2.39-11.73-7.5-20.73-10-42.39-10.18-64.13-.14-17.39,2.45-34.75,6.71-51.73.51-2,2-4-.4-5.82a2.89,2.89,0,0,1-.24-1.33l6.63-21.4,2.89-1.75,1.94-1.68-.15,0c1.14-.31,1.47-.76.27-1.49,10.75-18.25,26.42-32.24,41-47.19,2.35-2.42,5.74-4.17,6.17-8.1,3.16.3,5.61-1.39,8.28-2.7C202.91,244.64,211,241,219.82,239.64Zm9.28,109.91c-.07-14-11.6-25.09-26-25.09-15.34,0-26.54,10.78-26.47,25.47.08,14.95,10.76,24.77,26.95,24.78C218.68,374.73,229.18,364.4,229.1,349.55Z"/><path class="cls-1" d="M370.29,239.83a.74.74,0,0,1,.91-.19c4.39.24,8.24,2.35,12.36,3.45,7.27,1.94,13.12,7.33,20.78,8.13.44,3.93,3.83,5.68,6.18,8.1,14.56,14.95,30.23,28.94,41,47.19-1.2.73-.87,1.18.27,1.49l-.15,0,1.93,1.68,2.9,1.75,6.63,21.41a3,3,0,0,1-.24,1.32c-2.09,6,.69,11.08,3.26,16.17a2.65,2.65,0,0,1,.21,1.33c-.61,12.15,3,24,2.95,36-.19,23.14-2.51,46.09-10.3,68.15-1.34,3.78-3.16,7.5-2.38,11.73l.09-.12c-7,6.64-9.66,15.69-13.2,24.24l-.08.11c-3.57,1.53-4.92,4.83-6.41,8l-.08.08c-2.48,1.79-4.72,3.46-5.69-1.48-.35-1.8-.41-4.4-3.15-5-9.08-34.47-24.36-66-47.22-93.28-13.48-16.09-24.83-35.37-48-40.07-9.55-22.15-11.14-45.41-9-69,1.61-17.51,5.29-34.59,14.83-49.83C349.21,240.74,359.9,243.54,370.29,239.83Zm-8.36,109.35c-.17,15,10.13,25.41,25.19,25.53,16.24.13,27.14-9.6,27.32-24.4s-10.79-25.67-26.09-25.85C373.82,324.3,362.08,335.27,361.93,349.18Z"/><path class="cls-2" d="M134.58,311.41,128,332.81c-12.23-2.54-20.31-10.17-26.18-20.82-7.57-13.73-10-28.95-12.41-44-3.68-22.8-9.59-45.1-14-67.72-2.62-13.38-2.88-27,1-40.07,6.55-22.12,19.22-26.2,39.05-21.74,23.34,5.25,41.64,19.87,58.15,36.44a240.16,240.16,0,0,1,46.28,64.74c-8.86,1.34-16.91,5-24.86,8.88-2.67,1.31-5.12,3-8.28,2.7-12-24.07-31.14-42-51.25-59-6-5.08-12.49-9.56-20.19-11.78-7.22-2.08-13,1.47-14.44,8.84a27.21,27.21,0,0,0,.4,10.47c5.15,25.68,11.44,51.13,14.49,77.2C117.33,290.9,122.65,303,134.58,311.41Z"/><path class="cls-2" d="M404.34,251.22c-7.66-.8-13.51-6.19-20.78-8.13-4.12-1.1-8-3.21-12.36-3.45,18.19-35.59,41.91-66.53,75.85-88.54,12-7.77,24.71-14.18,39.78-13.86,13.73.29,22.07,5.94,26.59,19.17,5.29,15.48,5.38,31.39,1.56,47-7.51,30.77-11.65,62.24-19.57,92.88-4.46,17.23-12.8,32.12-32.33,36.54l-6.63-21.41c9.56-7.05,15.94-16.28,17.64-28.09C478.18,255,484.05,227,490,199c1.31-6.23,1.52-12.64-4.22-17.14s-11.29-.92-16.7,1.36a17.8,17.8,0,0,0-3.55,2C440.66,203.06,418.8,223.72,404.34,251.22Z"/><path class="cls-3" d="M338.67,241.27c-9.54,15.24-13.22,32.32-14.83,49.83-2.18,23.6-.59,46.86,9,69-10.9-1.05-21.6-3.23-32.66-3.56-14.25-.43-28,3-42,3.55,14.9-40.42,14.06-80.08-5.75-118.83a11,11,0,0,0-.61-1.46h87.53A11,11,0,0,0,338.67,241.27Z"/><path class="cls-3" d="M381.87,600.48H207.53q.06-17.79.11-35.6l9.84-3.31c7.85,7,13.25-.11,19.32-3.35a23.18,23.18,0,0,0,3.37,3.35c25.92,17,54.23,20.29,83.82,13.36,11.35-2.66,24.39-3.53,30.24-16.71,6.07,3.24,11.47,10.32,19.31,3.35l8.24,3.32Z"/><path class="cls-1" d="M381.87,600.48l-.09-35.59c15.18,4.21,28.7-.7,37.27-12.94,9-12.82,10.84-27.4,11.45-42.39,3.39-2.39,6.76-4.79,6.4-9.67l.08-.08c4.74-.6,5.56-4.33,6.41-8l.08-.11,4.52-1.61c.11,35.11.1,70.23.43,105.34.05,5.47-2.81,5.24-6.56,5.22C421.86,600.51,401.87,600.52,381.87,600.48Z"/><path class="cls-1" d="M207.64,564.88q-.06,17.8-.11,35.6c-18.64,0-37.28,0-55.93.17-3.94,0-5.76-.71-5.72-5.25.28-33.49.3-67,.4-100.46,3.54.11,3.84,5.37,7.76,4.87l.09.08c-.36,4.87,3,7.28,6.39,9.67a96.31,96.31,0,0,0,5.06,30.52C172.52,559.9,190.85,570.71,207.64,564.88Z"/><path class="cls-2" d="M128.19,334.14c2.38,1.79.91,3.77.4,5.82-4.26,17-6.85,34.34-6.71,51.73.19,21.74,2.68,43.4,10.18,64.13,1.37,3.77,3.16,7.5,2.39,11.73-7.21-13.42-10.33-28.13-12.5-42.92-4.23-28.9-3-57.66,4.51-86A41.38,41.38,0,0,1,128.19,334.14Z"/><path class="cls-2" d="M456.58,467.55c-.78-4.23,1-7.95,2.38-11.73,7.79-22.06,10.11-45,10.3-68.15.09-12-3.56-23.88-2.95-36,5.15,16.3,5.69,33.14,4.72,49.94-1.18,20.55-3.66,41-11.51,60.35A62.61,62.61,0,0,1,456.58,467.55Z"/><path class="cls-2" d="M448,490.06l-4.52,1.61c3.54-8.55,6.16-17.6,13.2-24.24C455.57,475.66,448.34,481.54,448,490.06Z"/><path class="cls-2" d="M134.36,467.43a30.46,30.46,0,0,1,9.8,19.66A55.63,55.63,0,0,1,134.36,467.43Z"/><path class="cls-2" d="M338.67,241.27a11,11,0,0,1,.61-1.46l31,0C359.9,243.54,349.21,240.74,338.67,241.27Z"/><path class="cls-2" d="M251.75,239.81a11,11,0,0,1,.61,1.46c-10.54-.53-21.23,2.27-31.62-1.44Z"/><path class="cls-2" d="M466.1,350.31c-2.57-5.09-5.35-10.14-3.26-16.17C464.87,339.34,466.62,344.6,466.1,350.31Z"/><path class="cls-2" d="M154,499.81c-3.92.5-4.22-4.76-7.76-4.87l-.09-3.19C151.11,492.19,152.23,496.33,154,499.81Z"/><path class="cls-2" d="M144.06,486.93c1.71.55,1.83,1.95,1.82,3.41Z"/><path class="cls-4" d="M207.64,564.88c-16.79,5.83-35.12-5-42.06-24.8a96.31,96.31,0,0,1-5.06-30.52l1-8c.16-1.14.31-2.28.47-3.42.33-1.55.66-3.1,1-4.65,11.31-43.34,33.42-80.53,64-113,8.82-9.37,17.83-18.05,31.15-20.37,14.05-.56,27.78-4,42-3.55,11.06.33,21.76,2.51,32.66,3.56,23.21,4.7,34.56,24,48,40.07C403.7,427.5,419,459,428.06,493.46q1.23,8,2.44,16.1c-.61,15-2.49,29.57-11.45,42.39-8.57,12.24-22.09,17.15-37.27,12.94l-8.24-3.32c.79-3.21-2.28-4-3.75-5.66-5.5-6.33-12-12.47-13.62-20.76-4.05-20.35-11.25-39.15-23.63-55.87,6.53-2.25,6.81-8.35,8.43-13.64,9.49-.27,11.74-3.83,7.56-11.94,4.19-1.51,6.38-3.76,3.49-8.34-1.82-2.9-1.45-6.17-.84-9.38,5.23,1,8.68-1,8.75-6.4.05-3.45-2.34-6.27-6.21-5.92-5.58.5-6.9,4.24-5.8,9.23-2.05-.52-1.73-2.26-2.15-3.76-1.63-5.9-4-11.31-10.23-13.86,4.66-15.39,2.22-24.22-9.79-31.45-17.61-10.58-36.32-11.38-54.87-3.19-16.65,7.35-20.66,17.59-15.38,34.64-3.3-.09-4.1,2.92-5.94,4.69-3.71,3.56-3.23,9.16-6.45,12.93,1.09-5-.22-8.73-5.8-9.23-3.87-.35-6.26,2.47-6.21,5.92.07,5.38,3.52,7.41,8.75,6.4.54,2.88,1.2,6-.5,8.48-3,4.4-1.08,7.93,1.13,11.61-.88,7.26,2.41,10.36,9.57,9.57,1.47,5.39,2.8,10.86,8.45,13.65-7.45,11.16-15.13,22.28-18.29,35.56-4,16.9-8.74,33.31-22.72,45.16-.26.22,0,1,0,1.56Zm11-110.36c-.53-3.78-2.35-6.5-6.55-6.61-3.85-.11-6,2.23-6.26,5.86-.31,4,1.73,6.79,5.87,7.09S217.9,458.46,218.64,454.52Zm159.84-6.71c-3.76.63-6.21,3-5.94,7s2.78,6.43,7,6.05c3.72-.34,5.74-2.78,5.69-6.48C385.15,450.29,382.93,448,378.48,447.81Z"/><path class="cls-5" d="M134.58,311.41C122.65,303,117.33,290.9,115.69,277c-3-26.07-9.34-51.52-14.49-77.2a27.21,27.21,0,0,1-.4-10.47c1.41-7.37,7.22-10.92,14.44-8.84,7.7,2.22,14.19,6.7,20.19,11.78,20.11,17,39.25,34.92,51.25,59-.43,3.93-3.82,5.68-6.17,8.1-14.56,14.95-30.23,28.94-41,47.19a1.87,1.87,0,0,0-.27,1.49l.14,0-1.93,1.68Z"/><path class="cls-6" d="M229.1,349.55c.08,14.85-10.42,25.18-25.57,25.16-16.19,0-26.87-9.83-26.95-24.78-.07-14.69,11.13-25.47,26.47-25.47C217.5,324.46,229,335.57,229.1,349.55Zm-16.31-2.09c-.34-3-2.07-4.91-5.16-5.1s-4.59,2-4.43,4.57c.22,3.42,2.6,5.13,6.09,5C212.15,351.86,212.79,349.94,212.79,347.46Z"/><path class="cls-2" d="M161.51,501.54l-1,8c-3.39-2.39-6.75-4.8-6.39-9.67C156.34,501.57,158.61,503,161.51,501.54Z"/><path class="cls-2" d="M163,493.47c-.32,1.55-.65,3.1-1,4.65C160.05,496.09,160.08,494.48,163,493.47Z"/><path class="cls-2" d="M139.26,308a1.87,1.87,0,0,1,.27-1.49C140.73,307.24,140.4,307.69,139.26,308Z"/><path class="cls-2" d="M137.47,309.66,139.4,308Z"/><path class="cls-5" d="M404.34,251.22c14.46-27.5,36.32-48.16,61.14-66.08a17.8,17.8,0,0,1,3.55-2c5.41-2.28,10.88-5.92,16.7-1.36S491.26,192.73,490,199c-5.9,28-11.77,56-15.86,84.36-1.7,11.81-8.08,21-17.64,28.09l-2.9-1.75L451.62,308l.15,0a1.87,1.87,0,0,0-.27-1.49c-10.75-18.25-26.42-32.24-41-47.19C408.17,256.9,404.78,255.15,404.34,251.22Z"/><path class="cls-6" d="M361.93,349.18c.15-13.91,11.89-24.88,26.42-24.72,15.3.18,26.27,11,26.09,25.85s-11.08,24.53-27.32,24.4C372.06,374.59,361.76,364.15,361.93,349.18Zm26.06-1.9c-.33-2.65-1.25-4.92-4.28-4.93s-5,1.73-5.4,4.88c-.32,2.84.69,4.79,3.92,4.75S387.07,350.09,388,347.28Z"/><path class="cls-2" d="M430.5,509.56q-1.22-8.06-2.44-16.1c2.74.55,2.8,3.15,3.15,5,1,4.94,3.21,3.27,5.69,1.48C437.26,504.77,433.89,507.17,430.5,509.56Z"/><path class="cls-2" d="M443.39,491.78c-.85,3.7-1.67,7.43-6.41,8C438.47,496.61,439.82,493.31,443.39,491.78Z"/><path class="cls-2" d="M451.5,306.51a1.87,1.87,0,0,1,.27,1.49C450.63,307.69,450.3,307.24,451.5,306.51Z"/><path class="cls-2" d="M451.62,308l1.93,1.68Z"/><path class="cls-5" d="M354.23,558.22c-5.85,13.18-18.89,14-30.24,16.71-29.59,6.93-57.9,3.63-83.82-13.36a23.18,23.18,0,0,1-3.37-3.35c7.31-9,11-19.45,13.69-30.69,3.51-14.49,9.19-28.36,19.84-39.42,15.61-16.21,34.76-16.2,50.37,0C331.35,499.17,337,513,340.54,527.53,343.26,538.77,346.92,549.21,354.23,558.22Z"/><path class="cls-6" d="M354.23,558.22c-7.31-9-11-19.45-13.69-30.69C337,513,331.35,499.17,320.7,488.11c-15.61-16.2-34.76-16.21-50.37,0C259.68,499.17,254,513,250.49,527.53c-2.73,11.24-6.38,21.67-13.69,30.69-6.07,3.24-11.47,10.32-19.32,3.35,0-.53-.25-1.34,0-1.56,14-11.85,18.71-28.26,22.72-45.16,3.16-13.28,10.84-24.4,18.29-35.56l-.12-.23c1.43.25,2-.28,1.69-1.74v.25c1.72.33,2.38-.95,3.15-2.07,4.6-2.74,9.35-5.26,13.77-8.27,4.61-3.14,12.58-.42,14.61-6,1.9-5.24.43-11.7.45-17.62a14.59,14.59,0,0,1,0-1.62c.6-4.66-.59-6.87-6.1-7.71-12.64-1.91-23.43-7.66-30.44-19-5.28-17-1.27-27.29,15.38-34.64,18.55-8.19,37.26-7.39,54.87,3.19,12,7.23,14.45,16.06,9.79,31.45-4.2,6.42-9.28,13.29-16.67,14.38-17.3,2.56-17.91,13.67-16.21,26.88a7.55,7.55,0,0,1,0,2.42c-.81,3.8,1.24,5.14,4.56,6,7.68,1.91,14.24,6.09,20.62,10.59.78,1.11,1.42,2.43,3.17,2.05l-.05-.21c-.28,1.44.28,2,1.73,1.71l-.14.23c12.39,16.72,19.59,35.52,23.64,55.87,1.65,8.29,8.12,14.43,13.62,20.76,1.47,1.68,4.54,2.45,3.75,5.66C365.7,568.54,360.3,561.46,354.23,558.22Z"/><path class="cls-5" d="M255.5,415.27c7,11.35,17.8,17.1,30.44,19,5.51.84,6.7,3.05,6.1,7.71a14.59,14.59,0,0,0,0,1.62c0,5.92,1.45,12.38-.45,17.62-2,5.58-10,2.86-14.61,6-4.42,3-9.17,5.53-13.77,8.27-1.5,0-2.95.09-3.15,2.07v-.25a1.69,1.69,0,0,0-1.69,1.74l.12.23c-5.65-2.79-7-8.26-8.45-13.65,3.39-3.31,5.5-7,1.46-11.06s-7.74-1.91-11,1.49c-2.21-3.68-4.16-7.21-1.13-11.61,1.7-2.46,1-5.6.5-8.48l.16.3c2.48.28,3.51-.9,3.32-3.3l-.22-.09c3.22-3.77,2.74-9.37,6.45-12.93C251.4,418.19,252.2,415.18,255.5,415.27Z"/><path class="cls-5" d="M327.82,475.5c-6.38-4.5-12.94-8.68-20.62-10.59-3.32-.82-5.37-2.16-4.56-6a7.55,7.55,0,0,0,0-2.42c-1.7-13.21-1.09-24.32,16.21-26.88,7.39-1.09,12.47-8,16.67-14.38,6.2,2.55,8.6,8,10.23,13.86.42,1.5.1,3.24,2.15,3.76l-.22.09c-.19,2.4.83,3.58,3.32,3.3l.16-.3c-.61,3.21-1,6.48.84,9.38,2.89,4.58.7,6.83-3.49,8.33l.27-.46c-.36-2.4-1.44-2.28-2.89-.81-9.35,1.67-10.82,5.61-4.94,13.22-1.62,5.29-1.9,11.39-8.43,13.64l.13-.23a1.69,1.69,0,0,0-1.73-1.71l.05.21C330.76,475.59,329.32,475.5,327.82,475.5Z"/><path class="cls-6" d="M218.64,454.52c-.74,3.94-2.75,6.64-6.94,6.34s-6.18-3.05-5.87-7.09c.28-3.63,2.41-6,6.26-5.86C216.29,448,218.11,450.74,218.64,454.52Z"/><path class="cls-6" d="M378.48,447.81c4.45.2,6.67,2.48,6.73,6.56.05,3.7-2,6.14-5.69,6.48-4.2.38-6.71-2.18-7-6.05S374.72,448.44,378.48,447.81Z"/><path class="cls-6" d="M341,465.64c-5.88-7.61-4.41-11.55,4.95-13.22l2.88.81-.27.46C352.71,461.81,350.46,465.37,341,465.64Z"/><path class="cls-6" d="M347.92,432.89c-1.1-5,.22-8.73,5.8-9.23,3.87-.35,6.26,2.47,6.21,5.92-.07,5.38-3.52,7.41-8.75,6.4l-.16.3L347.7,433Z"/><path class="cls-6" d="M239.85,436c-5.23,1-8.68-1-8.75-6.4,0-3.45,2.34-6.27,6.21-5.92,5.58.5,6.89,4.24,5.8,9.23l.22.09-3.32,3.3Z"/><path class="cls-6" d="M240.48,456.07c3.29-3.4,7-5.53,11-1.49s1.93,7.75-1.46,11.06C242.89,466.43,239.6,463.33,240.48,456.07Z"/><path class="cls-7" d="M212.79,347.46c0,2.48-.64,4.4-3.5,4.49-3.49.11-5.87-1.6-6.09-5-.16-2.6,1.38-4.76,4.43-4.57S212.45,344.43,212.79,347.46Z"/><path class="cls-7" d="M388,347.28c-.92,2.81-2.61,4.66-5.76,4.7s-4.24-1.91-3.92-4.75c.36-3.15,2.33-4.89,5.4-4.88S387.66,344.63,388,347.28Z"/><path class="cls-4" d="M260.06,477.57c.2-2,1.65-2.06,3.15-2.07C262.44,476.62,261.78,477.9,260.06,477.57Z"/><path class="cls-4" d="M327.82,475.5c1.5,0,2.94.09,3.17,2.05C329.24,477.93,328.6,476.61,327.82,475.5Z"/><path class="cls-4" d="M258.38,479.06a1.69,1.69,0,0,1,1.69-1.74C260.42,478.78,259.81,479.31,258.38,479.06Z"/><path class="cls-4" d="M330.94,477.34a1.69,1.69,0,0,1,1.73,1.71C331.22,479.36,330.66,478.78,330.94,477.34Z"/><path class="cls-4" d="M240,436.28l3.32-3.3C243.52,435.38,242.49,436.56,240,436.28Z"/><path class="cls-4" d="M347.7,433l3.32,3.3C348.53,436.56,347.51,435.38,347.7,433Z"/><path class="cls-4" d="M348.8,453.23l-2.88-.81C347.36,451,348.44,450.83,348.8,453.23Z"/></svg>