<svg id="Layer_1" data-name="Layer 1" xmlns="http://www.w3.org/2000/svg" viewBox="0 0 600 600"><defs><style>.cls-1{fill:#aec6d0;}.cls-2{fill:#414345;}.cls-3{fill:#fbe166;}.cls-4{fill:#fefefe;}.cls-5{fill:#f8f8f8;}</style></defs><path class="cls-1" d="M305.5,601c-60.66,0-121.32-.07-182,.1-6.67,0-9-.35-7.62-8.69,4.45-25.92,7.29-52.13,11.08-78.17.45-3.14-1.11-4.4-2.59-6.16-10.48-12.47-20.9-24.92-27.77-40-9.07-19.87-13.79-40.57-15.95-62.32C78,379,81.82,353.19,88.18,327.5c6.13-24.74,18.35-46.59,33.23-67,2.49-3.42,3-6,1.94-10.14-5.21-20.16-8.82-40.73-8.25-61.56.39-14.25,1.26-28.78,7.78-42.1,5.63-11.49,13-15.36,26.93-8.84,10.93,5.13,20.44,12.69,29.16,21,11.87,11.25,23.34,23,34.56,34.86,2.4,2.55,4,2.7,6.64,1.53,17.25-7.54,35.77-11,54-13.67,16.82-2.46,34.31-1.57,51.41-.52a236.79,236.79,0,0,1,51.73,9.27c.25.08.59,0,.79.12,14,9.93,22.19,1.2,31.31-8.56,14.22-15.22,28.76-30.19,47-41.06s30.12-6.16,35.42,14.5c6.29,24.51,5.27,49,.78,73.66-1.44,7.85-2.79,15.7-5.21,23.33a6.82,6.82,0,0,0,1.34,6.7c20.39,26.49,33.73,56.13,39.18,89.17,8.16,49.44,4.1,96.79-24.78,139.61-4.76,7.05-10.44,13.49-16,20-2.25,2.64-2.76,4.76-2.19,8.45,4.07,26.53,7.55,53.16,11.31,79.74.47,3.34-.27,5.22-4,5.06-2.14-.09-4.29,0-6.44,0Zm11.34-347.86c2.84-1.3,2.34-3.91,2.35-6.23.05-13.06,0-26.12.06-39.18,0-2.41.12-4.84-1.77-6.74-3.13-2.81-6-6.46-11-4.56-5.14,2-4.66,6.61-4.67,10.85,0,14.41.05,28.81,0,43.22,0,4.43,1,8,5.87,9.13C313,260.83,315.6,257.85,316.84,253.13Zm-17,168.45h0c0,3.49.2,7,0,10.45-1,14.59-9.28,20.72-23.69,17.78-7-1.43-12.11-5.45-15.9-11.31-2.25-3.47-5.15-4.65-8.86-2.57s-4,5.49-2.66,9.07c1.44,3.85,4.14,6.82,7.28,9.44a39.49,39.49,0,0,0,46.44,2.84c3-2,4.73-3.19,7.8.15,11.64,12.68,43.45,5,51.33-10a19.82,19.82,0,0,0,1.72-4.44c.81-3.32-.56-5.85-3.52-7.31a5.78,5.78,0,0,0-7.82,1.84,47.76,47.76,0,0,1-5,6.24c-6.84,6.33-15.14,8.47-23.85,5.64-7.51-2.44-8.38-9.86-9.06-16.53s-.51-13.37-1-20.05c-.27-4,1.2-5.52,5-7.45,10.26-5.18,20-11.59,24.61-23,3.78-9.23,1-16.86-8.35-20.17-18.8-6.66-38-6.22-56.79-.12C267.73,365.3,265,373.3,269,382.85s11.54,16.77,21,19.9c9.14,3,10.91,8.33,9.81,16.42A17.61,17.61,0,0,0,299.85,421.58ZM206.41,292c-11.72,1.57-24.34,6.47-33.65,17.31-9,10.51-8.39,22.95.62,33.63,16.88,20,51.57,23.19,72,6.62,8-6.46,11-15.88,7.92-25C247.3,306.49,227.6,292.12,206.41,292Zm197.38-.32c-21.1,2.31-36.08,11.52-44.54,30.06-4.56,10-2.75,19.92,5.68,26.86,20,16.45,57.55,16.86,75.16-8.33,5.91-8.46,6.86-17.38,1.54-26.39C432.91,299.07,418.26,294.54,403.79,291.67ZM470,205.59c-.47-5.85-.33-11.83-1.52-17.54-2.37-11.29-10-14-18.52-6.33-8,7.12-15.27,15-22.81,22.56-4.79,4.82-3.64,9,1.66,12.5,8.48,5.6,16.85,11.39,25.55,16.62,6.69,4,11.08,2,13.24-5.48C469.71,220.63,469.43,213.09,470,205.59Zm-328.23-1c.2,8.63-.11,16.46,2.26,23.95,1.77,5.61,5.47,9.23,11.45,5.64,9.84-5.91,19.38-12.34,28.87-18.8,3.73-2.54,4.14-6.22,1.06-9.68-8.17-9.19-16.46-18.36-26.3-25.8-6.36-4.8-12.33-2.57-15.23,4.93C141.3,191.47,142.12,198.52,141.76,204.56ZM465.31,377.08c-15.38,1.58-30.77,3.25-45.68,7.69-4.77,1.42-7.4,4.66-5.86,9.71,1.4,4.62,4.78,5.73,9.53,4.54,22.47-5.58,45.42-7.71,68.46-9.06a48.55,48.55,0,0,0,10.89-1.68c3.8-1.12,5.37-4.71,5-8.22-.59-4.81-4.6-6.08-8.88-6.18C487.46,373.62,476.49,376.35,465.31,377.08Zm-348.5-3.34c-4.45.69-8.42-1.36-11.33,2.43-2,2.6-2.78,5.62-1.24,8.21a10.82,10.82,0,0,0,9.88,5.62c13.38-.21,26.63,1.64,39.91,3a243.55,243.55,0,0,1,33,6c4.42,1.08,9.37.57,10.76-5,1.26-5-1.78-8-6.47-9.4-1.79-.52-3.61-1-5.43-1.41C162.86,377.9,139.23,377,116.81,373.74Zm-4.53,59.66c26-3.17,49.8-3.26,73.52-4.69,4.94-.3,9.6-1.47,9.42-7.44-.2-6.46-5.21-7.23-10.43-7-15.79.64-31.58,1.09-47.36,2-8.24.46-16.48,1.4-24.64,2.65-4.07.63-6.61,3.42-5.85,8.05C107.65,431.29,110.28,433.38,112.28,433.4Zm335.91-18.65v-.51c-8,0-16,0-24.07,0-3.88,0-6.78,1.7-7.83,5.56a6.52,6.52,0,0,0,2.6,7.09c2,1.58,4.45,1.65,6.86,1.82,23.14,1.62,46.41,1.16,69.44,4.61a7.49,7.49,0,0,0,8.29-4.83,7.72,7.72,0,0,0-1.61-7.93c-2.4-2.74-6.33-2.61-9.76-2.85C477.47,416.65,462.83,415.72,448.19,414.75Zm31.74,57.71c5.3.23,8.07-1.43,8.78-5.55.8-4.62-.91-7.9-5.7-9-20.26-4.83-40.22-10.94-61-13.44-5.07-.6-8.22-.62-9.11,4.85-.87,5.31,2,7.77,6.95,8.85,12.51,2.73,25,5.34,37.34,9C465,469.48,473.14,470.9,479.93,472.46Zm-348.41,0c7.93-2,17.14-4.46,26.4-6.67,11.69-2.78,23.42-5.35,35.13-8.05,4.42-1,6.08-4,5.58-8.32s-3.78-6.35-7.18-5.79c-21.53,3.52-42.69,8.8-63.75,14.46-4.42,1.18-5.68,4.58-5,8.74S126.1,472.67,131.52,472.47ZM350.07,228.23h-1.78c0-7.47.39-15-.11-22.39s-6.07-10.52-12.36-7c-4.57,2.53-4.17,7.34-3.48,11.42,2.18,12.84,2,25.84,3.14,38.74.39,4.33,1.46,8.81,6.19,8.58s8.8-3.09,8.48-9.35C349.8,241.57,350.07,234.89,350.07,228.23Zm-86.91-2h-1.77q0,10.4,0,20.78c0,4.64-.28,9.17,6.59,9.45,6.43.26,7.67-3.75,7.9-8.51.71-14.29,1.11-28.58,1.73-42.87.19-4.41-.75-6.69-6.11-6.86s-8.27.8-8.33,6.4C263.1,211.84,263.16,219,263.16,226.25ZM295.33,561.5h.05c0,5.62-.13,11.24.05,16.86a6.14,6.14,0,0,0,5.27,6.2c3.4.67,6.26-1.09,6.92-4.11a100,100,0,0,0,1-35.81c-.57-3.9-3.31-7-7.94-6.19-4,.75-5.42,3.9-5.39,7.79C295.36,551.33,295.33,556.41,295.33,561.5Zm41.83-3.19c.51,5.52-.65,10.39.94,15.06.91,2.64,2.4,4.88,5.61,4.88a5.88,5.88,0,0,0,6.19-5.16,83.6,83.6,0,0,0,.58-26c-.46-3.53-2.06-6-6.19-5.86s-6,2.58-6.52,5.87C337.12,551,337.3,555.07,337.16,558.31Zm-62.79,1-.35,0c0-3.73.4-7.52-.12-11.18s-2.12-6.58-6.56-6.82c-4.68-.25-6.22,2.78-6.52,6.44-.7,8.41-.87,16.86.67,25.22.59,3.18,2.63,5.25,6.05,5.34,3.63.09,5.45-2.53,5.93-5.46C274.19,568.35,274.11,563.78,274.37,559.27Z"/><path class="cls-2" d="M299.85,421.58a17.61,17.61,0,0,1,0-2.41c1.1-8.09-.67-13.39-9.81-16.42-9.49-3.13-16.92-10.24-21-19.9s-1.29-17.55,8.46-20.72c18.81-6.1,38-6.54,56.79.12,9.34,3.31,12.13,10.94,8.35,20.17-4.65,11.38-14.35,17.79-24.61,23-3.82,1.93-5.29,3.45-5,7.45.47,6.68.31,13.4,1,20.05S315.52,447,323,449.42c8.71,2.83,17,.69,23.85-5.64a47.76,47.76,0,0,0,5-6.24,5.78,5.78,0,0,1,7.82-1.84c3,1.46,4.33,4,3.52,7.31a19.82,19.82,0,0,1-1.72,4.44c-7.88,15-39.69,22.66-51.33,10-3.07-3.34-4.79-2.11-7.8-.15A39.49,39.49,0,0,1,256,454.44c-3.14-2.62-5.84-5.59-7.28-9.44-1.34-3.58-1.09-7,2.66-9.07s6.61-.9,8.86,2.57c3.79,5.86,8.88,9.88,15.9,11.31,14.41,2.94,22.7-3.19,23.69-17.78.23-3.47,0-7,0-10.45Z"/><path class="cls-3" d="M206.41,292c21.19.13,40.89,14.5,46.92,32.57,3,9.11.06,18.53-7.92,25-20.46,16.57-55.15,13.38-72-6.62-9-10.68-9.63-23.12-.62-33.63C182.07,298.46,194.69,293.56,206.41,292Zm22.83,31.72c.1-3.55-1.38-8.07-2.86-12.68-2.37-7.37-9.12-8.9-14.87-10-6.29-1.18-11.32,3.09-14,9-4.91,10.78-5.37,21.81,0,32.5,5.9,11.85,20,12.14,26.94.8C227.83,337.79,229.23,331.59,229.24,323.71Z"/><path class="cls-3" d="M403.79,291.67c14.47,2.87,29.12,7.4,37.84,22.2,5.32,9,4.37,17.93-1.54,26.39-17.61,25.19-55.18,24.78-75.16,8.33-8.43-6.94-10.24-16.86-5.68-26.86C367.71,303.19,382.69,294,403.79,291.67ZM382.2,325.09a34.46,34.46,0,0,0,4.89,18.38c3.15,5.1,7.55,8.33,13.85,8.07s10.63-3.7,13.16-9.12c5.07-10.84,4.82-21.86-.33-32.59-2.43-5.06-6.44-9.44-12.34-8.76-6.29.71-13.14,1.72-16,9.21C383.55,315.09,382.15,319.91,382.2,325.09Z"/><path class="cls-2" d="M470,205.59c-.56,7.5-.28,15-2.4,22.33-2.16,7.47-6.55,9.5-13.24,5.48-8.7-5.23-17.07-11-25.55-16.62-5.3-3.5-6.45-7.68-1.66-12.5,7.54-7.59,14.85-15.44,22.81-22.56,8.52-7.62,16.15-5,18.52,6.33C469.66,193.76,469.52,199.74,470,205.59Z"/><path class="cls-2" d="M141.76,204.56c.36-6-.46-13.09,2.11-19.76,2.9-7.5,8.87-9.73,15.23-4.93,9.84,7.44,18.13,16.61,26.3,25.8,3.08,3.46,2.67,7.14-1.06,9.68-9.49,6.46-19,12.89-28.87,18.8-6,3.59-9.68,0-11.45-5.64C141.65,221,142,213.19,141.76,204.56Z"/><path class="cls-2" d="M465.31,377.08c11.18-.73,22.15-3.46,33.41-3.2,4.28.1,8.29,1.37,8.88,6.18.42,3.51-1.15,7.1-5,8.22A48.55,48.55,0,0,1,491.76,390c-23,1.35-46,3.48-68.46,9.06-4.75,1.19-8.13.08-9.53-4.54-1.54-5.05,1.09-8.29,5.86-9.71C434.54,380.33,449.93,378.66,465.31,377.08Z"/><path class="cls-2" d="M116.81,373.74c22.42,3.23,46.05,4.16,69.11,9.43,1.82.42,3.64.89,5.43,1.41,4.69,1.38,7.73,4.36,6.47,9.4-1.39,5.55-6.34,6.06-10.76,5a243.55,243.55,0,0,0-33-6c-13.28-1.35-26.53-3.2-39.91-3a10.82,10.82,0,0,1-9.88-5.62c-1.54-2.59-.75-5.61,1.24-8.21C108.39,372.38,112.36,374.43,116.81,373.74Z"/><path class="cls-2" d="M112.28,433.4c-2,0-4.63-2.11-5.34-6.47-.76-4.63,1.78-7.42,5.85-8.05,8.16-1.25,16.4-2.19,24.64-2.65,15.78-.89,31.57-1.34,47.36-2,5.22-.21,10.23.56,10.43,7,.18,6-4.48,7.14-9.42,7.44C162.08,430.14,138.26,430.23,112.28,433.4Z"/><path class="cls-2" d="M448.19,414.75c14.64,1,29.28,1.9,43.91,3,3.43.24,7.36.11,9.76,2.85a7.72,7.72,0,0,1,1.61,7.93,7.49,7.49,0,0,1-8.29,4.83c-23-3.45-46.3-3-69.44-4.61-2.41-.17-4.87-.24-6.86-1.82a6.52,6.52,0,0,1-2.6-7.09c1.05-3.86,4-5.54,7.83-5.56,8,0,16.05,0,24.07,0Z"/><path class="cls-2" d="M479.93,472.46c-6.79-1.56-14.93-3-22.78-5.32-12.3-3.67-24.83-6.28-37.34-9-5-1.08-7.82-3.54-6.95-8.85.89-5.47,4-5.45,9.11-4.85,20.82,2.5,40.78,8.61,61,13.44,4.79,1.14,6.5,4.42,5.7,9C488,471,485.23,472.69,479.93,472.46Z"/><path class="cls-2" d="M131.52,472.47c-5.42.2-8.14-1.52-8.81-5.63s.57-7.56,5-8.74c21.06-5.66,42.22-10.94,63.75-14.46,3.4-.56,6.69,1.48,7.18,5.79s-1.16,7.31-5.58,8.32c-11.71,2.7-23.44,5.27-35.13,8.05C148.66,468,139.45,470.46,131.52,472.47Z"/><path class="cls-2" d="M316.84,253.13c-1.24,4.72-3.82,7.7-9.16,6.49-4.83-1.09-5.89-4.7-5.87-9.13.07-14.41,0-28.81,0-43.22,0-4.24-.47-8.88,4.67-10.85,5-1.9,7.85,1.75,11,4.57C317.75,218.38,318.31,235.77,316.84,253.13Z"/><path class="cls-2" d="M350.07,228.23c0,6.66-.27,13.34.08,20,.32,6.26-3.65,9.12-8.48,9.35s-5.8-4.25-6.19-8.58c-1.15-12.9-1-25.9-3.14-38.74-.69-4.08-1.09-8.89,3.48-11.42,6.29-3.5,11.86-.47,12.36,7s.11,14.92.11,22.39Z"/><path class="cls-2" d="M263.16,226.25c0-7.21-.06-14.41,0-21.61.06-5.6,3.08-6.58,8.33-6.4s6.3,2.45,6.11,6.86c-.62,14.29-1,28.58-1.73,42.87-.23,4.76-1.47,8.77-7.9,8.51-6.87-.28-6.58-4.81-6.59-9.45q0-10.4,0-20.78Z"/><path class="cls-4" d="M295.33,561.5c0-5.09,0-10.17,0-15.26,0-3.89,1.35-7,5.39-7.79,4.63-.85,7.37,2.29,7.94,6.19a100,100,0,0,1-1,35.81c-.66,3-3.52,4.78-6.92,4.11a6.14,6.14,0,0,1-5.27-6.2c-.18-5.62-.05-11.24-.05-16.86Z"/><path class="cls-4" d="M337.16,558.31c.14-3.24,0-7.29.61-11.2.56-3.29,2.53-5.79,6.52-5.87s5.73,2.33,6.19,5.86a83.6,83.6,0,0,1-.58,26,5.88,5.88,0,0,1-6.19,5.16c-3.21,0-4.7-2.24-5.61-4.88C336.51,568.7,337.67,563.83,337.16,558.31Z"/><path class="cls-4" d="M274.37,559.27c-.26,4.51-.18,9.08-.9,13.52-.48,2.93-2.3,5.55-5.93,5.46-3.42-.09-5.46-2.16-6.05-5.34-1.54-8.36-1.37-16.81-.67-25.22.3-3.66,1.84-6.69,6.52-6.44,4.44.24,6.07,3.3,6.56,6.82s.12,7.45.12,11.18Z"/><path class="cls-5" d="M316.84,253.13c1.47-17.36.91-34.75.63-52.14,1.9,1.89,1.78,4.32,1.78,6.73,0,13.06,0,26.12-.06,39.18C319.18,249.22,319.68,251.83,316.84,253.13Z"/><path class="cls-2" d="M229.24,323.71c0,7.88-1.41,14.08-4.85,19.68-7,11.34-21,11.05-26.94-.8-5.33-10.69-4.87-21.72,0-32.5,2.7-5.95,7.73-10.22,14-9,5.75,1.08,12.5,2.61,14.87,10C227.86,315.64,229.34,320.16,229.24,323.71Z"/><path class="cls-2" d="M382.21,325.09c-.06-5.18,1.34-10,3.19-14.81,2.89-7.49,9.74-8.5,16-9.21,5.9-.68,9.91,3.7,12.34,8.76,5.15,10.73,5.4,21.75.33,32.59-2.53,5.42-6.88,8.86-13.16,9.12s-10.7-3-13.85-8.07A34.36,34.36,0,0,1,382.21,325.09Z"/></svg>