<svg id="Layer_1" data-name="Layer 1" xmlns="http://www.w3.org/2000/svg" viewBox="0 0 600 600"><defs><style>.cls-1{fill:#ea8f28;}.cls-2{fill:#e78727;}.cls-3{fill:#f8f8f8;}.cls-4{fill:#414345;}</style></defs><path class="cls-1" d="M210.39,172.73c.69-1.46,2.07-1.44,3.38-1.59,1.18,1.94,2.62,1.35,4.29.65,15.78-6.6,32.3-9.79,49.33-10.6,2.5-.11,5.23.31,5.72-3.26l3.42,0a123.45,123.45,0,0,0,44,0l3.41,0c.49,3.57,3.22,3.15,5.72,3.26,17,.81,33.56,4,49.33,10.6,1.68.69,3.12,1.29,4.29-.65,1.3.15,2.69.12,3.38,1.59,1.1,3.54,3.83,3.88,6.92,3.51l-.14-.1c.58,1.69,2,1.9,3.46,1.85l-.07-.06c.13,2.6,1.2,3.83,3.91,2.7l-.06.13c0,2.22,1.57,2.29,3.18,2.29l1.48,1.45c.05,2.62,1,4,3.88,2.91,0,0-.05.13-.05.14-.09,2.14,1.41,2.26,2.95,2.34,9.57-7.61,18.42-16.06,31.17-18.86,22.94-5,46,3,59.78,21.94,17.52,24.12,28.86,51,35.68,80-2,1.69-2,3.36.07,5a3.41,3.41,0,0,1,.25,1.38c.17,3.89,0,7.83.58,11.66,1.39,9.64,1,19.5,4.19,28.93,1.93,5.67-2.27,11.18-.89,17.32,1.88,8.39,2.65,17.12-1.41,25.4-1.76,3.59-.89,7.09.94,10.43a3.81,3.81,0,0,1-.28,1.37c-3,6.51-7.35,12.57-6.68,20.29-11.63,19.49-36.58,25.19-53.93,12.33l-2.31-2-3.11-3.15c-.3-1.92-.15-4.06-1-5.71-5.25-10.58-6.2-22.2-7.1-33.51-1.95-24.54-4.32-49-9-73.17-1.64-8.39-.08-18.1-7.53-24.85-1.95-6.38-3.8-12.8-5.9-19.13-1.17-3.51-2.93-6.9-6.95-7.78s-7.54-.94-5.76,5.21c1.22,4.25,1.74,8.71,2.57,13.08-2.14,12.95,1.67,25.05,5.28,37.19a5.52,5.52,0,0,1,.11,1.35c.36,3.53-1.56,7.41,1.62,10.51a6.66,6.66,0,0,1,.07,1.34c.48,4.61-1.66,9.48,1.4,13.83a4,4,0,0,1,.29,1.41c-.23,7,.79,14,1.26,20.92,2.26,33.27,3.7,66.6,5.36,99.91.63,12.6,1.08,25.28,1.23,37.82.47,38.24,1.42,76.47,2.23,114.7.11,4.89-1.87,6.33-6.49,6.26-13-.2-25.93-.14-38.89,0-3,0-6.26-1.11-8.81,1.55h-3.44c-1.68-2.06-3.35-2.06-5,0h-6.82c-2.26-2.49-5.25-1.56-7.95-1.56q-78.36-.08-156.73,0c-2.7,0-5.69-.93-7.95,1.56h-6.82c-1.68-2.07-3.35-2.07-5,0H196.9c-2.26-2.5-5.26-1.54-8-1.56-12.68-.09-25.36-.33-38,.08-6.15.2-8.57-1.45-8.28-8,.63-13.72.63-27.44,1.52-41.19,1.77-27.73,0-55.56,1.57-83.41,1.64-29.66,2.07-59.4,3.57-89.1a1018.37,1018.37,0,0,1,11.75-108.3c.76-4.84,4.62-10.13.51-15.32.54-3.3,1.27-6.59,1.54-9.91.22-2.81,3.84-6.27.12-8.29-3.44-1.86-7,.42-9.92,2.9-3-.07-3.49,2.1-4.31,4.29-5.7,15.25-9.15,31.11-11.76,47.06-3.24,19.81-6.31,39.74-7.55,59.74-.91,14.58-4.26,28.73-5.33,43.21l.12-.14c-3.69,1.06-3.86,3.92-3.58,7L117.78,405l-2.3,2c-17.39,12.87-42.31,7.18-53.94-12.32,1.88-1.34.9-2.77.32-4.39-6.47-18.2-11.24-36.64-7.55-56.21a4.45,4.45,0,0,0,.08-1.66c-2.94-14.23,2.89-27.8,3-41.76.06-6,4.72-11.67.87-17.77,6.86-28.58,17.84-55.33,35.31-79.19,21.78-29.74,61.24-32.72,87.26-6.58,1.18,1.19,2.16,2.65,4.07,2.75,1.53-.09,3-.21,2.92-2.35l0-.12c2.86,1.1,3.83-.3,3.88-2.92l1.48-1.45c1.6,0,3.17-.08,3.15-2.31l0-.1c2.71,1.12,3.78-.11,3.9-2.71l-.07.06c1.51,0,2.88-.16,3.46-1.85l-.14.1C206.56,176.6,209.29,176.27,210.39,172.73Zm179.3,169.6.09.13c.07-1.56-.13-2.95-2-3.41l.11.15c.63-4.08-.32-7-5.19-6.94l-4.85-4.74c.22-3.82-2.3-3.95-5.07-3.76l.07.06c-.21-2.11-.3-4.4-3.25-2l-19.88-8.8c-16.19-7.18-26.58-19.48-30.78-36.53a108.41,108.41,0,0,1-3.39-32.47c.49-1,1.4-1.92,1.41-2.89.1-18.11.16-36.22,0-54.33,0-2.68-.47-5.68-4-6.44l.15-.11a1.81,1.81,0,0,0-1.7-2l-3-3c-.45-1.89-1.84-2.17-3.48-2l.18.12c-4.45-2.39-8.9-5.87-13.34,0l.15-.12c-1.63-.13-3,.15-3.47,2l-3,3a1.8,1.8,0,0,0-1.68,2l.12.08c-4.74,1.86-4.06,6-4.07,9.81,0,14.76-.1,29.53,0,44.3,0,3.2-1.22,6.73,1.48,9.57.95,7.91-.57,15.71-1.6,23.44-2.8,21.18-13.17,37.18-33.32,45.94-6.39,2.78-12.75,5.61-19.13,8.42-3-2.44-3-.15-3.24,2l.06-.06c-2.76-.19-5.28-.06-5.07,3.76l-4.84,4.74c-4.88,0-5.83,2.86-5.2,6.94l.11-.15c-1.82.46-2,1.85-2,3.41l.09-.13c-1.7.66-1.87,2-1.69,3.59l.11-.13c-4.59,1.44-3.7,5.15-3.53,8.55l.12-.11c-5.65,3.58-5.57,10.06-6.85,15.36-3.76,15.55-1.84,31.49-2,47.3-.16,12.46,4.71,23.62,7.53,35.26,1,3.94,2.46,10,8.57,11.07l.29.36c-1.51,3,.35,3.65,2.74,3.93,11.15,14.36,26.14,21.43,43.88,24a308.69,308.69,0,0,0,73.28,1.44c21.43-2,40.93-7.38,54.73-25.41,2.4-.28,4.25-.94,2.73-3.93l.32-.34c2.07.58,3-.79,4-2.23,5.76-8.4,8-18.4,9.91-27.85,3.55-17.9,3.69-36.37,1.8-54.56-.89-8.48-1.58-17.7-8.5-24.37l.11.12c.17-3.41,1.06-7.12-3.53-8.56l.12.13C391.57,344.37,391.39,343,389.69,342.33ZM247.48,275.59c-.26-4.91-1.12-9.33-3.38-13.29-5.7-10-17.55-10.46-24.18-1.09-6.21,8.77-5.15,23.51,2.25,31.33,5.11,5.41,12.27,5.77,17.9.9S246.77,282,247.48,275.59Zm133.87-1.31a57.6,57.6,0,0,0-1.85-8.17c-2.5-6.82-7.05-11.84-14.77-11.58-7.35.24-11.38,5.38-13.63,11.91a26.75,26.75,0,0,0,1.13,20.46c2.44,5.32,6,9.66,12.51,9.7s10.89-3.53,13.68-9.27C380.29,283.47,380.84,279.33,381.35,274.28Z"/><path class="cls-2" d="M161.56,256c4.11,5.19.25,10.48-.51,15.32a1018.37,1018.37,0,0,0-11.75,108.3c-1.5,29.7-1.93,59.44-3.57,89.1-1.53,27.85.2,55.68-1.57,83.41-.89,13.75-.89,27.47-1.52,41.19-.29,6.53,2.13,8.18,8.28,8,12.66-.41,25.34-.17,38-.08,2.7,0,5.7-.94,8,1.56-16.63.07-33.26,0-49.89.31-4.57.09-6.19-1-6.2-6-.08-53.26,1.4-106.47,3.25-159.7.92-26.45,1.84-52.88,3.75-79.27A788.29,788.29,0,0,1,161.56,256Z"/><path class="cls-2" d="M400.11,602.77c2.55-2.66,5.84-1.52,8.81-1.55,13-.12,25.93-.18,38.89,0,4.62.07,6.6-1.37,6.49-6.26-.81-38.23-1.76-76.46-2.23-114.7-.15-12.54-.6-25.22-1.23-37.82-1.66-33.31-3.1-66.64-5.36-99.91-.47-7-1.49-13.9-1.26-20.92,4.59,10.49,3.93,21.88,4.65,32.81,2.34,35.33,4.25,70.71,5.1,106.1,1.08,44.71,2.86,89.42,2.26,134.17-.08,6.15-1,8.76-8,8.47C432.2,602.52,416.15,602.84,400.11,602.77Z"/><path class="cls-2" d="M124.35,395c1.07-14.48,4.42-28.63,5.33-43.21,1.24-20,4.31-39.93,7.55-59.74,2.61-16,6.06-31.81,11.76-47.06.82-2.19,1.36-4.36,4.31-4.29-9.79,24.89-13.07,51.2-17.33,77.34-3.76,23.1-3,46.71-8.26,69.62C127.09,390.37,126.87,393.18,124.35,395Z"/><path class="cls-2" d="M58.3,272.91c3.85,6.1-.81,11.81-.87,17.77-.15,14-6,27.53-3,41.76a4.45,4.45,0,0,1-.08,1.66c-3.69,19.57,1.08,38,7.55,56.21.58,1.62,1.56,3.05-.32,4.39C50.79,377.58,50.2,358.13,50.19,339,50.18,316.79,52.49,294.57,58.3,272.91Z"/><path class="cls-2" d="M451.49,264.62c7.45,6.75,5.89,16.46,7.53,24.85,4.71,24.14,7.08,48.63,9,73.17.9,11.31,1.85,22.93,7.1,33.51.83,1.65.68,3.79,1,5.71-8.84-9.29-8.72-21.57-9.84-32.92C462.84,333.94,459.42,299,451.49,264.62Z"/><path class="cls-2" d="M542.44,373c-1.83-3.34-2.7-6.84-.94-10.43,4.06-8.28,3.29-17,1.41-25.4-1.38-6.14,2.82-11.65.89-17.32-3.22-9.43-2.8-19.29-4.19-28.93-.56-3.83-.41-7.77-.58-11.66,6.93,23,8.71,46.59,7.31,70.39C545.88,357.5,546.35,365.7,542.44,373Z"/><path class="cls-2" d="M273.11,157.93c-.49,3.57-3.22,3.15-5.72,3.26-17,.81-33.55,4-49.33,10.6-1.67.7-3.11,1.29-4.29-.65C232.53,162.13,252.64,159.24,273.11,157.93Z"/><path class="cls-2" d="M383.24,171.14c-1.17,1.94-2.61,1.34-4.29.65-15.77-6.6-32.3-9.79-49.33-10.6-2.5-.11-5.23.31-5.72-3.26C344.37,159.24,364.49,162.13,383.24,171.14Z"/><path class="cls-2" d="M320.49,157.91a123.45,123.45,0,0,1-44,0A218.18,218.18,0,0,1,320.49,157.91Z"/><path class="cls-2" d="M440.73,293.19c-3.61-12.14-7.42-24.24-5.28-37.19C437.34,268.38,441.41,280.44,440.73,293.19Z"/><path class="cls-2" d="M535.48,394.7c-.67-7.72,3.69-13.78,6.68-20.29C542.89,382.15,539.09,388.39,535.48,394.7Z"/><path class="cls-2" d="M443.93,320.22c-3.06-4.35-.92-9.22-1.4-13.83C445.71,310.72,444.57,315.49,443.93,320.22Z"/><path class="cls-2" d="M442.46,305.05c-3.18-3.1-1.26-7-1.62-10.51C443.38,297.73,443.2,301.35,442.46,305.05Z"/><path class="cls-2" d="M393.54,176.24c-3.09.37-5.82,0-6.92-3.51C389.36,173,391.81,173.93,393.54,176.24Z"/><path class="cls-2" d="M120.89,401.85c-.28-3.08-.11-5.94,3.58-7C124.33,397.72,123.55,400.27,120.89,401.85Z"/><path class="cls-2" d="M210.39,172.73c-1.1,3.54-3.83,3.87-6.92,3.51C205.2,173.93,207.65,173,210.39,172.73Z"/><path class="cls-2" d="M400.7,180.63c-2.71,1.13-3.78-.1-3.91-2.7A5.54,5.54,0,0,1,400.7,180.63Z"/><path class="cls-2" d="M191.72,184.5c-.05,2.62-1,4-3.88,2.92Z"/><path class="cls-2" d="M409.18,187.41c-2.86,1.11-3.83-.29-3.88-2.91Z"/><path class="cls-2" d="M200.22,177.93c-.12,2.6-1.19,3.83-3.9,2.71A5.48,5.48,0,0,1,200.22,177.93Z"/><path class="cls-2" d="M538.78,277.92c-2-1.64-2-3.31-.07-5C538.73,274.59,538.76,276.25,538.78,277.92Z"/><path class="cls-2" d="M412.08,189.89c-1.54-.08-3-.2-2.95-2.34Z"/><path class="cls-2" d="M403.82,183.05c-1.61,0-3.17-.07-3.18-2.29A4,4,0,0,1,403.82,183.05Z"/><path class="cls-2" d="M196.35,180.74c0,2.23-1.55,2.3-3.15,2.31Z"/><path class="cls-2" d="M396.86,178c-1.51,0-2.88-.16-3.46-1.85Z"/><path class="cls-2" d="M203.61,176.14c-.58,1.69-2,1.9-3.46,1.85Z"/><path class="cls-2" d="M187.86,187.54c.12,2.14-1.39,2.26-2.92,2.35Z"/><path class="cls-2" d="M479.24,405l2.31,2C480.79,406.36,480,405.68,479.24,405Z"/><path class="cls-2" d="M115.48,407l2.3-2Z"/><path class="cls-3" d="M227.37,321.86c6.38-2.81,12.74-5.64,19.13-8.42,20.15-8.76,30.52-24.76,33.32-45.94,1-7.73,2.55-15.53,1.6-23.44.13-9.26.14-18.53.4-27.79.33-12-1.89-24.13,2.15-35.89l-.12-.09,1.68-2,3-3,3.47-2-.15.12h13.34l-.17-.12,3.47,2,3,3c.57.67,1.14,1.33,1.7,2a1.3,1.3,0,0,1-.15.1c2.39,6.15,2.37,12.57,2.35,19,0,14.88.13,29.75.21,44.63A108.41,108.41,0,0,0,319,276.53c4.2,17.05,14.59,29.35,30.78,36.53l19.88,8.8,3.25,2-.07-.06,5.07,3.76,4.85,4.74,5.19,6.94-.1-.15,1.95,3.41-.09-.13c.15,1.39.24,2.81,1.7,3.59l-.12-.13a18.7,18.7,0,0,0,3.53,8.56l-.11-.12c.28,1.65.5,3.31.85,4.95,7.6,35.48,8.45,70.44-8,104.06,0,0-.32.34-.31.34l-2.74,3.93c-13.8,18-33.3,23.38-54.73,25.41a308.69,308.69,0,0,1-73.28-1.44c-17.74-2.54-32.73-9.61-43.88-24l-2.74-3.93s-.29-.36-.3-.35c-4.92-10.35-9.08-21-10.86-32.39-4-25.8-2.44-51.31,3.67-76.61l-.12.11c2.06-2.49,2.92-5.47,3.53-8.55l-.11.13c1.46-.78,1.55-2.2,1.69-3.59l-.09.12c.66-1.13,1.31-2.27,2-3.4l-.11.15,5.2-6.94,4.84-4.74,5.07-3.76-.06.06Zm64,97.5c0,7.31.67,14.71-.19,21.92-.84,7-4.64,12.81-12.43,14.14-7.57,1.3-13.92-.8-18.13-7.71a72.5,72.5,0,0,0-4.16-6.32c-2.13-2.77-4.89-3.76-8.14-1.95s-4.78,4.47-3.68,8.42c5.61,20,33.23,28.82,48.9,15.25,3.85-3.34,5.49-3.82,9.69-.31,16.38,13.7,42.5,5.69,49.05-14.54.85-2.62.86-4.95-1.15-7-1.86-1.93-4.08-3.21-6.79-2.47-3.6,1-4.92,4.35-6.73,7.14-5.69,8.77-12.14,11.86-20.49,9.31-8.58-2.63-11.4-9.63-11.67-17.67-.37-11,.22-22-.29-33-.25-5.41,1.71-7.11,6.7-8.25,11.91-2.72,21.87-8.83,28.43-19.5,10.51-17.08,4.07-36.14-14.8-43.23a77.54,77.54,0,0,0-52.23-1.31c-11.32,3.71-19.51,11.89-21.17,24.88-1.73,13.68,7.21,31.11,23.35,35.12C292.32,396.5,293.28,406.17,291.33,419.36Z"/><path class="cls-4" d="M247.48,275.59c-.71,6.43-1.85,13-7.41,17.85s-12.79,4.51-17.9-.9c-7.4-7.82-8.46-22.56-2.25-31.33,6.63-9.37,18.48-8.88,24.18,1.09C246.36,266.26,247.22,270.68,247.48,275.59Z"/><path class="cls-4" d="M381.35,274.28c-.51,5.05-1.06,9.19-2.93,13.05-2.79,5.74-7.14,9.31-13.68,9.27s-10.07-4.38-12.51-9.7a26.75,26.75,0,0,1-1.13-20.46c2.25-6.53,6.28-11.67,13.63-11.91,7.72-.26,12.27,4.76,14.77,11.58A57.6,57.6,0,0,1,381.35,274.28Z"/><path class="cls-2" d="M202.33,354.23c-6.11,25.3-7.69,50.81-3.67,76.61,1.78,11.44,5.94,22,10.86,32.39-6.1-1.12-7.6-7.14-8.56-11.08-2.82-11.64-7.69-22.8-7.53-35.26.21-15.81-1.71-31.75,2-47.3C196.76,364.29,196.68,357.81,202.33,354.23Z"/><path class="cls-2" d="M387.5,463.24c16.49-33.62,15.64-68.58,8-104.06-.35-1.64-.57-3.3-.85-4.95,6.92,6.67,7.61,15.89,8.5,24.37,1.89,18.19,1.75,36.66-1.8,54.56-1.88,9.45-4.15,19.45-9.91,27.85C390.5,462.45,389.57,463.82,387.5,463.24Z"/><path class="cls-2" d="M284,180.38c-4,11.76-1.82,23.91-2.15,35.89-.26,9.26-.27,18.53-.4,27.79-2.7-2.84-1.45-6.37-1.48-9.57-.14-14.77-.09-29.54,0-44.3C279.91,186.41,279.23,182.24,284,180.38Z"/><path class="cls-2" d="M315.59,244.06c-.08-14.88-.25-29.75-.21-44.63,0-6.47,0-12.89-2.35-19,3.54.77,4,3.77,4,6.45.12,18.11.06,36.22,0,54.33C317,242.14,316.08,243.1,315.59,244.06Z"/><path class="cls-2" d="M305.19,173.36H291.85C296.29,167.49,300.74,171,305.19,173.36Z"/><path class="cls-2" d="M214.28,332.26l-5.2,6.94C208.45,335.12,209.4,332.22,214.28,332.26Z"/><path class="cls-2" d="M387.93,339.2l-5.19-6.94C387.61,332.22,388.56,335.12,387.93,339.2Z"/><path class="cls-2" d="M394.8,354.35a18.7,18.7,0,0,1-3.53-8.56C395.86,347.23,395,350.94,394.8,354.35Z"/><path class="cls-2" d="M205.74,345.79c-.61,3.08-1.47,6.06-3.53,8.55C202,350.94,201.15,347.23,205.74,345.79Z"/><path class="cls-2" d="M377.89,327.52l-5.07-3.76C375.59,323.57,378.11,323.7,377.89,327.52Z"/><path class="cls-2" d="M224.19,323.76l-5.07,3.76C218.91,323.7,221.43,323.57,224.19,323.76Z"/><path class="cls-2" d="M372.89,323.82l-3.25-2C372.59,319.42,372.68,321.71,372.89,323.82Z"/><path class="cls-2" d="M209.82,463.58l2.74,3.93C210.17,467.23,208.31,466.58,209.82,463.58Z"/><path class="cls-2" d="M384.45,467.51l2.74-3.93C388.7,466.57,386.85,467.23,384.45,467.51Z"/><path class="cls-2" d="M227.37,321.86l-3.24,2C224.33,321.71,224.42,319.42,227.37,321.86Z"/><path class="cls-2" d="M207.32,342.33c-.14,1.39-.23,2.81-1.69,3.59C205.45,344.37,205.62,343,207.32,342.33Z"/><path class="cls-2" d="M389.78,342.46l-1.95-3.41C389.65,339.51,389.85,340.9,389.78,342.46Z"/><path class="cls-2" d="M292,173.24l-3.47,2C289,173.39,290.37,173.11,292,173.24Z"/><path class="cls-2" d="M209.19,339.05c-.65,1.13-1.3,2.27-2,3.4C207.16,340.9,207.37,339.51,209.19,339.05Z"/><path class="cls-2" d="M391.39,345.92c-1.46-.78-1.55-2.2-1.7-3.59C391.39,343,391.57,344.37,391.39,345.92Z"/><path class="cls-2" d="M308.49,175.28l-3.47-2C306.65,173.11,308,173.39,308.49,175.28Z"/><path class="cls-2" d="M313.18,180.29c-.56-.67-1.13-1.33-1.7-2A1.81,1.81,0,0,1,313.18,180.29Z"/><path class="cls-2" d="M285.53,178.29l-1.68,2A1.8,1.8,0,0,1,285.53,178.29Z"/><path class="cls-4" d="M291.33,419.36c1.95-13.19,1-22.86-15.93-27.06-16.14-4-25.08-21.44-23.35-35.12,1.66-13,9.85-21.17,21.17-24.88a77.54,77.54,0,0,1,52.23,1.31c18.87,7.09,25.31,26.15,14.8,43.23-6.56,10.67-16.52,16.78-28.43,19.5-5,1.14-6.95,2.84-6.7,8.25.51,11-.08,22,.29,33,.27,8,3.09,15,11.67,17.67,8.35,2.55,14.8-.54,20.49-9.31,1.81-2.79,3.13-6.15,6.73-7.14,2.71-.74,4.93.54,6.79,2.47,2,2.08,2,4.41,1.15,7-6.55,20.23-32.67,28.24-49.05,14.54-4.2-3.51-5.84-3-9.69.31-15.67,13.57-43.29,4.72-48.9-15.25-1.1-3.95.35-6.57,3.68-8.42s6-.82,8.14,1.95a72.5,72.5,0,0,1,4.16,6.32c4.21,6.91,10.56,9,18.13,7.71,7.79-1.33,11.59-7.1,12.43-14.14C292,434.07,291.33,426.67,291.33,419.36Z"/></svg>