<svg id="Layer_1" data-name="Layer 1" xmlns="http://www.w3.org/2000/svg" viewBox="0 0 600 600"><defs><style>.cls-1{fill:#f9bb4d;}.cls-2{fill:#976045;}.cls-3{fill:#f29c2d;}.cls-4{fill:#414345;}.cls-5{fill:#f8f8f8;}</style></defs><path class="cls-1" d="M97,369.75c4.31-29.12,16.13-55.07,33.24-78.8,1.52-2.12,2.94-4.32,4.4-6.48,21.26-20.26,38.4-43.59,52.33-69.41,4.79-8.88,6.35-17.63,2.61-27.12,1.74-.49,3.09.34,4.27,1.41,14.33,12.9,32.15,16.5,50.42,18.87l35.22,4.57c.9.52,1.79,1.48,2.7,1.49,14.64.16,29.29.21,43.93.27a2.87,2.87,0,0,0,3.11-2.82c11.14-1.38,22.3-2.61,33.41-4.17,15.76-2.21,28.87-10.15,41.23-19.58-5.7,11.39-4.05,21.83,2.4,32.73,8.17,13.82,16.64,27.4,27,39.59,7.89,9.27,14.65,19.85,25.88,25.83,19.9,26.36,30.62,56.3,35,88.8,4.68,34.66-2.51,66.72-21.18,96.09-9.27,14.58-22.6,25.53-35.92,36.27-2.9,2.33-4.33,4-3.65,8.18,3,18.83,5.42,37.77,8,56.66-2.1,2.13-2.11,4.2.16,6.21a3,3,0,0,1,.07,1.34c.4,3.22-1.35,6.75,1.35,9.65a2.69,2.69,0,0,1,.23,1.43c0,2.69,0,5.39,0,8.08l-201-.08c-1-1.53-2-1.52-3,0H207.46c-.47-.88-.94-.87-1.41,0H149c-.68-5.18,1.64-10.62-1.4-15.59,0-1.11.09-2.22.14-3.33a47.57,47.57,0,0,0,3.14-31.41c0-.6.09-1.21.13-1.81,5.18-3.64,3-8.08,1.35-12.46.47-5.72.26-11.6,1.57-17.12,1.58-6.7-1.84-9.78-6.52-13.16-20.07-14.51-34.65-33.2-42.44-56.91a2.88,2.88,0,0,0,1-3.46c-7.27-22.1-8.47-44.88-7.58-67.9C98.45,373.59,98.89,371.39,97,369.75ZM326.1,404.24c1.12-2.08,2.39-4.09,3.31-6.25,5.31-12.44-.46-21.76-13.79-22-12.37-.22-24.76-.36-37.12,0-11.46.36-16.41,8.29-12.33,19,3.51,9.17,10.62,14.78,19.15,18.92,2,1,4.78,1.28,4.66,4.5-.21,5.77.2,11.66-.84,17.29-1.24,6.7-5.92,10.19-13.06,10.09-9.26-.12-14.57-4.31-16.45-13.6-.84-4.12-1.71-8.08-7.14-7.48-5.8.65-6,4.93-5.61,9.43,1.54,20.63,26.95,32,45,19.81,3.9-2.63,5.91-3.47,10.24,0,9.16,7.33,20,7.6,30.55,2.9,9.05-4,14.42-11.17,15.81-21.07.64-4.5-.92-8.08-5.69-8.81-4.22-.65-5.73,2.52-6.8,6.12-3,10.3-9.12,14.81-18,13.71-9.56-1.19-15.12-8-15.24-18.62,9.13,0,15-5.55,19.82-12.25C324.92,412.66,329.45,409.46,326.1,404.24Zm76.5-82.72c.41-17-11.38-30.68-26.74-31.07C360,290,347.41,302.63,347,319.29c-.46,17.08,11.89,30.87,27.38,31.63C388.48,351.61,402.63,337.26,402.6,321.52Zm-172.86-33c-15.86,0-28.48,12.92-28.6,29.36-.13,17,12.17,31,27.13,30.83,14.15-.16,26.27-14.28,26.51-30.87C255,300.78,244.54,288.51,229.74,288.49Zm-86.52,77.87c-3.9,0-6.27-.06-8.63,0-3.79.11-6.93,1.68-7.57,5.57s1.33,7.25,5.19,8.74a18.87,18.87,0,0,0,6.92,1.28c21.55-.46,42.3,4,62.78,10,4.6,1.35,8.72,1.61,10.37-3.51,1.71-5.33-1.52-8.19-6.52-9.71C184.82,372.47,163.53,368,143.22,366.36Zm247.36,30.07c3.7-1,7.47-2.11,11.3-3a287.82,287.82,0,0,1,49.1-6.54c5.76-.26,13.9,1.07,13.56-7.79-.35-9.12-8.62-6.6-14.18-6.5a251.76,251.76,0,0,0-25.13,1.89,178.28,178.28,0,0,0-36.07,7.88c-3.75,1.27-6.61,3.67-6,8.11C383.76,394.49,386.65,396.13,390.58,396.43ZM182.66,422.18c4.93,0,12.3-.07,19.68,0,6.14.08,8-3.39,7-8.67-1.16-5.93-6.52-5.37-10.75-5.77-15.71-1.49-31.31,2.45-47.06,1.12-4.69-.4-9.47.22-14.2.43-5.38.23-9.35,2.05-8.93,8.42.41,6.14,4.84,5.75,9.21,5.74C151.82,423.44,166,421.18,182.66,422.18Zm211.06-7.81c-2.77,0-6.72.78-7.17,5.23-.42,4.25,2.19,7.41,6.58,8.49a19.64,19.64,0,0,0,3.93.23c20.68.89,41.29,2.76,61.81,5.44,5.3.7,9.09-.41,9.78-6.07.66-5.5-3.2-6.86-7.82-7.7C439,416,416.78,417,393.72,414.37Zm-191.5,26.06c-1.67.5-4.24,1.08-6.66,2-11.72,4.57-23.4,9.26-35.11,13.88-4.92,1.93-9.79,4.2-7,10.73s7.76,4.63,12.66,2.64c13.36-5.43,26.72-10.88,40.18-16,3.95-1.52,6.71-3.52,5.6-8S207,440.68,202.22,440.43Zm234.12,33.83c3.4-.46,6.13-1.8,7.07-5.32s-.05-6.18-3.62-7.67c-15.25-6.42-30.5-12.81-45.7-19.34-4.35-1.86-7.44-.29-9,3.52s-.06,7.19,4.05,8.95q21.71,9.35,43.42,18.68A38,38,0,0,0,436.34,474.26Z"/><path class="cls-2" d="M189.62,187.94c3.74,9.49,2.18,18.24-2.61,27.12-13.93,25.82-31.07,49.15-52.33,69.41-15.55-7.63-29.11-17.63-38.06-32.84-14.68-24.92-16-63.09,5-86.53,13.7-15.26,33.19-18.15,53.08-8.15C169.1,164.17,180.4,174.91,189.62,187.94Z"/><path class="cls-2" d="M459.21,286.13c-11.23-6-18-16.56-25.88-25.83-10.38-12.19-18.85-25.77-27-39.59-6.45-10.9-8.1-21.34-2.4-32.73,7.68-9.7,15.83-19,26.36-25.7,24.25-15.55,49.93-9.85,65.25,14.36,19.68,31.09,11.65,74.74-18.08,97.32C471.64,278.37,465.3,282.09,459.21,286.13Z"/><path class="cls-3" d="M97,369.75c1.85,1.64,1.41,3.84,1.33,5.87-.89,23,.31,45.8,7.58,67.9a2.88,2.88,0,0,1-1,3.46C96.57,421.82,92.82,396.19,97,369.75Z"/><path class="cls-3" d="M329.27,211.73a2.87,2.87,0,0,1-3.11,2.82c-14.64-.06-29.29-.11-43.93-.27-.91,0-1.8-1-2.7-1.49,5.88-2.1,11.83-.23,17.73-.16A316.5,316.5,0,0,0,329.27,211.73Z"/><path class="cls-3" d="M150.84,548.44a47.57,47.57,0,0,1-3.14,31.41Q149.26,564.15,150.84,548.44Z"/><path class="cls-3" d="M147.56,583.18c3,5,.72,10.41,1.4,15.59-2.53.47-3.36-.79-3.07-3.08C146.42,591.52,147,587.35,147.56,583.18Z"/><path class="cls-3" d="M152.32,534.17c1.65,4.38,3.83,8.82-1.35,12.46Z"/><path class="cls-3" d="M443.1,589.33c-2.7-2.9-1-6.43-1.35-9.65C444.57,582.56,442.93,586.07,443.1,589.33Z"/><path class="cls-3" d="M443.29,598.84c0-2.69,0-5.39,0-8.08C445.27,593.46,446.55,596.16,443.29,598.84Z"/><path class="cls-3" d="M441.68,578.34c-2.27-2-2.26-4.08-.16-6.21C441.57,574.2,441.63,576.27,441.68,578.34Z"/><path class="cls-3" d="M239.28,598.75c1-1.51,2-1.52,3,0Z"/><path class="cls-3" d="M206.05,598.76c.47-.87.94-.88,1.41,0l-.71.1Z"/><path class="cls-4" d="M302.76,428.18c.12,10.64,5.68,17.43,15.24,18.62,8.9,1.1,15-3.41,18-13.71,1.07-3.6,2.58-6.77,6.8-6.12,4.77.73,6.33,4.31,5.69,8.81-1.39,9.9-6.76,17.07-15.81,21.07-10.6,4.7-21.39,4.43-30.55-2.9-4.33-3.46-6.34-2.62-10.24,0-18.08,12.17-43.49.82-45-19.81-.34-4.5-.19-8.78,5.61-9.43,5.43-.6,6.3,3.36,7.14,7.48,1.88,9.29,7.19,13.48,16.45,13.6,7.14.1,11.82-3.39,13.06-10.09,1-5.63.63-11.52.84-17.29.12-3.22-2.64-3.52-4.66-4.5-8.53-4.14-15.64-9.75-19.15-18.92-4.08-10.7.87-18.63,12.33-19,12.36-.38,24.75-.24,37.12,0,13.33.24,19.1,9.56,13.79,22-.92,2.16-2.19,4.17-3.31,6.25-4.26,3.79-8.48,8.45-14.09,9.27C302.44,414.91,301.3,420.44,302.76,428.18Z"/><path class="cls-4" d="M402.6,321.52c0,15.74-14.12,30.09-28.27,29.4-15.49-.76-27.84-14.55-27.38-31.63.46-16.66,13.08-29.25,28.91-28.84C391.22,290.84,403,304.54,402.6,321.52Zm-33.93-5.26c.17,4.86,2.74,8.16,7.55,8,4.34-.11,7-3.05,6.84-7.85s-2.83-8.16-7.56-8.14C371,308.32,368.69,311.6,368.67,316.26Z"/><path class="cls-4" d="M229.74,288.49c14.8,0,25.28,12.29,25,29.32-.24,16.59-12.36,30.71-26.51,30.87-15,.18-27.26-13.81-27.13-30.83C201.26,301.41,213.88,288.46,229.74,288.49Zm-.29,33.85c3.73-.57,7.7-2,7.76-6.71a6.68,6.68,0,0,0-7.7-7c-4.31.43-9.37,1.72-9.13,7.64C220.6,321.41,225,321.74,229.45,322.34Z"/><path class="cls-4" d="M143.22,366.36c20.31,1.67,41.6,6.11,62.54,12.44,5,1.52,8.23,4.38,6.52,9.71-1.65,5.12-5.77,4.86-10.37,3.51-20.48-6-41.23-10.51-62.78-10a18.87,18.87,0,0,1-6.92-1.28c-3.86-1.49-5.85-4.73-5.19-8.74s3.78-5.46,7.57-5.57C137,366.3,139.32,366.36,143.22,366.36Z"/><path class="cls-4" d="M390.58,396.43c-3.93-.3-6.82-1.94-7.39-5.91-.64-4.44,2.22-6.84,6-8.11a178.28,178.28,0,0,1,36.07-7.88,251.76,251.76,0,0,1,25.13-1.89c5.56-.1,13.83-2.62,14.18,6.5.34,8.86-7.8,7.53-13.56,7.79a287.82,287.82,0,0,0-49.1,6.54C398.05,394.32,394.28,395.46,390.58,396.43Z"/><path class="cls-4" d="M182.66,422.18c-16.7-1-30.84,1.26-45.07,1.3-4.37,0-8.8.4-9.21-5.74-.42-6.37,3.55-8.19,8.93-8.42,4.73-.21,9.51-.83,14.2-.43,15.75,1.33,31.35-2.61,47.06-1.12,4.23.4,9.59-.16,10.75,5.77,1,5.28-.84,8.75-7,8.67C195,422.11,187.59,422.18,182.66,422.18Z"/><path class="cls-4" d="M393.72,414.37C416.78,417,439,416,460.83,420c4.62.84,8.48,2.2,7.82,7.7-.69,5.66-4.48,6.77-9.78,6.07-20.52-2.68-41.13-4.55-61.81-5.44a19.64,19.64,0,0,1-3.93-.23c-4.39-1.08-7-4.24-6.58-8.49C387,415.15,391,414.4,393.72,414.37Z"/><path class="cls-4" d="M202.22,440.43c4.77.25,8.56.93,9.65,5.26s-1.65,6.45-5.6,8c-13.46,5.16-26.82,10.61-40.18,16-4.9,2-9.92,3.79-12.66-2.64s2.1-8.8,7-10.73c11.71-4.62,23.39-9.31,35.11-13.88C198,441.51,200.55,440.93,202.22,440.43Z"/><path class="cls-4" d="M436.34,474.26a38,38,0,0,1-3.78-1.18q-21.72-9.3-43.42-18.68c-4.11-1.76-5.63-5-4.05-8.95s4.65-5.38,9-3.52c15.2,6.53,30.45,12.92,45.7,19.34,3.57,1.49,4.55,4.2,3.62,7.67S439.74,473.8,436.34,474.26Z"/><path class="cls-3" d="M302.76,428.18c-1.46-7.74-.32-13.27,9.25-14.67,5.61-.82,9.83-5.48,14.09-9.27,3.35,5.22-1.18,8.42-3.52,11.69C317.78,422.63,311.89,428.19,302.76,428.18Z"/><path class="cls-5" d="M368.67,316.26c0-4.66,2.33-7.94,6.83-8,4.73,0,7.35,3.26,7.56,8.14s-2.5,7.74-6.84,7.85C371.41,324.42,368.84,321.12,368.67,316.26Z"/><path class="cls-5" d="M229.45,322.34c-4.41-.6-8.85-.93-9.07-6.1-.24-5.92,4.82-7.21,9.13-7.64a6.68,6.68,0,0,1,7.7,7C237.15,320.36,233.18,321.77,229.45,322.34Z"/></svg>