<svg id="Layer_1" data-name="Layer 1" xmlns="http://www.w3.org/2000/svg" viewBox="0 0 600 600"><defs><style>.cls-1{fill:#e78727;}.cls-2{fill:#f8ba4e;}.cls-3{fill:#414345;}.cls-4{fill:#f29c2d;}.cls-5{fill:#ea8f28;}.cls-6{fill:#a66f4a;}</style></defs><path class="cls-1" d="M143.39,471c-18.78-30.13-36.81-60.53-43.37-96.24a561.64,561.64,0,0,1-7.61-63,448.89,448.89,0,0,1-.07-61.15C97.52,174.53,133.9,120.1,218.46,98c35.74-9.35,72.3-8.93,109.09-5,23.4,2.53,46.38,6.19,67.47,16.25,59.15,28.22,98.33,72.49,107.24,139.49,4.82,36.27,4.16,72.6.08,108.94s-11.68,71.34-30.77,103.05c-14.39,22.93-32.13,42.84-52.62,60.61a365.47,365.47,0,0,1-105.35,64.2,33.3,33.3,0,0,1-27.83-.9c-5.27-2.54-10.41-5.35-15.74-7.75-32.66-14.72-62.18-34-88-59C167.37,503.72,155.12,487.6,143.39,471Zm20.85-85c-4.43.19-8.87.31-13.3.58-3.38.2-6.79.57-6.72,5.24s3.14,5.88,7.06,5.81c5.61-.1,11.21-.35,16.82-.55q5.82,10.79,11.66,21.57c-4.72,1.19-9.44,2.37-14.15,3.57-4.35,1.11-8.45,2.85-6.87,8.38,1.39,4.86,5.31,5.08,9.61,3.86,6-1.69,12.1-3.19,18.15-4.77a107.31,107.31,0,0,0,18.17,18.47c2,1.66,3.06,3.17,3.12,5.76.45,19.69,10.31,34.46,26,44.94,32.82,22,68.74,23.78,105.55,12.82,25.66-7.64,42.4-31.17,43.1-57.9.06-2.34-.43-5.12,1.93-6.4,8.38-4.52,13.85-12.55,21.71-17.66,6.55,1.4,13.13,2.73,19.67,4.21,4,.9,7-.1,8.19-4.22s-1.31-6.67-5.07-7.66c-5.15-1.35-10.39-2.34-15.59-3.48,2.43-7.61,8.47-13.47,10.33-21.35,5.32.11,10.64.28,16,.3,3.48,0,5.93-1.68,6-5.31s-2.1-5.44-5.68-5.61l-11.08-.55c3.14-14.82,6.77-29.65,7-44.84.28-21.17-2.64-42-11-61.6-2.92-6.78-.92-10.24,3.91-14.62,15.65-14.17,23.66-31.53,20-53.06C444,185,407.12,171.4,387.82,185.45c-10.87,7.91-18.93,17.33-24.32,29.24-2.24,5-5,6.5-10.3,5.15-18.36-4.64-36.2-3.44-53.08,5.78-2.62,1.43-5,2-7.86.32-17.63-10.46-36.65-10-55.81-6.28-4.63.9-6.3-.53-8-4.21a74,74,0,0,0-17.86-24.11c-13.52-12.4-28.73-15.21-45.27-7.3-15.05,7.2-23.91,19.34-25.15,36.21-1.51,20.53,10.32,34.32,25,46.09,4.17,3.35,4.64,5.55,2.69,10.39-6.66,16.58-10,33.95-10.84,51.85C156.07,348.18,158.82,367.25,164.24,386Z"/><path class="cls-2" d="M143.39,471c11.73,16.58,24,32.7,38.65,46.9,25.81,25,55.33,44.28,88,59,5.33,2.4,10.47,5.21,15.74,7.75a33.3,33.3,0,0,0,27.83.9A365.47,365.47,0,0,0,419,521.37c20.49-17.77,38.23-37.68,52.62-60.61,1.72,2.05,1,4.5,1,6.77.05,40.58-.06,81.17.15,121.76,0,5.33-1.11,7.12-6.87,7.11q-158.07-.27-316.13-.14c-3.39,0-6.86,1-6.83-4.92.26-39.17.15-78.35.18-117.53A22.13,22.13,0,0,1,143.39,471Z"/><path class="cls-2" d="M406.06,429.73c-7.86,5.11-13.33,13.14-21.71,17.66-2.36,1.28-1.87,4.06-1.93,6.4-.7,26.73-17.44,50.26-43.1,57.9-36.81,11-72.73,9.14-105.55-12.82-15.67-10.48-25.53-25.25-26-44.94-.06-2.59-1.08-4.1-3.12-5.76A107.31,107.31,0,0,1,186.5,429.7c9.31-2.18,18.56-4.62,27.94-6.44,4.38-.85,7.1-2.31,6.52-7.16-.68-5.73-5.25-5.42-8.5-4.05-10.52,4.42-22.06,3.22-32.7,6.61L168.1,397.1c14-.2,28-.36,42-.64,2.38,0,5.31,1.1,6.63-2.29,1.2-3.09,1.34-5.92-1.77-8a195.37,195.37,0,0,0-43.91.05l-6.8-.17c-5.42-18.76-8.17-37.83-7.22-57.43.87-17.9,4.18-35.27,10.84-51.85,1.95-4.84,1.48-7-2.69-10.39-14.64-11.77-26.47-25.56-25-46.09,1.24-16.87,10.1-29,25.15-36.21,16.54-7.91,31.75-5.1,45.27,7.3a74,74,0,0,1,17.86,24.11c1.66,3.68,3.33,5.11,8,4.21,19.16-3.71,38.18-4.18,55.81,6.28,2.86,1.7,5.24,1.11,7.86-.32,16.88-9.22,34.72-10.42,53.08-5.78,5.33,1.35,8.06-.18,10.3-5.15,5.39-11.91,13.45-21.33,24.32-29.24,19.3-14,56.19-.46,60.79,26.49,3.68,21.53-4.33,38.89-20,53.06-4.83,4.38-6.83,7.84-3.91,14.62,8.41,19.57,11.33,40.43,11,61.6-.21,15.19-3.84,30-7,44.84q-23.79-.26-47.58-.52c-4.08-.05-8.41-.46-8.53,5.45s4.23,5.52,8.3,5.59c14.2.26,28.42-.81,42.61.65-1.86,7.88-7.9,13.74-10.33,21.35-11.68-2.28-23.34-4.61-35-6.79-3.64-.67-7.38-.58-8.11,4.22s2.32,6.44,6.58,7.17A236.27,236.27,0,0,1,406.06,429.73ZM257.07,371l6-46.27c-5.67,10.64-13.3,34.41-11.51,49.2-3.86,5.92-.15,10.91,2.59,15.47,6.76,11.24,17.6,17.15,29.75,21,1.73.54,3.6.4,4.49,2.68,4.44,11.46-3.81,27.13-15.73,30.15-8.51,2.16-15.74.16-22-5.75-2.22-2.1-4.56-3.82-7.34-1.47-3,2.54-2.55,5.77-.72,8.89a18.14,18.14,0,0,0,7.29,6.44c13.08,7.2,30.21,5.46,41.19-4.8,3.21-3,4.33-2.74,7.35.22,11.82,11.57,32.75,12.44,46,2.27,3.88-3,8.75-6.52,4.6-12-4.44-5.89-7.62.11-10.88,2.38-7.95,5.52-16.43,6.82-25.28,2.94-8.65-3.8-11.12-11.45-11.27-20.19,0-2.11.16-4.23,0-6.33-.25-3.3.9-4.82,4.38-5.73a57.87,57.87,0,0,0,24.41-13.4c6.19-5.66,11.13-12.15,9.93-21.36,3.39-5.93.6-11.91-.2-17.73a114.21,114.21,0,0,0-9.74-33.69c-.27,7.91,1.16,15.57,1.92,23.3.78,7.92,4.5,15.84,1,23.95C307.85,364.93,282.47,365.5,257.07,371Zm-42.49-64.25c.06,11,7.92,19.47,17.89,19.28,9.22-.18,17.21-9.33,17.1-19.56-.1-9.86-8.26-18.12-17.81-18C221.91,288.49,214.52,296.38,214.58,306.72Zm162.25-.27c-.11-10.27-7.81-18.16-17.63-18.07-9.57.09-16.6,8.25-16.4,19,.19,10.51,7.68,18.68,17.05,18.59S377,317.15,376.83,306.45Z"/><path class="cls-3" d="M423.59,397.23c-14.19-1.46-28.41-.39-42.61-.65-4.07-.07-8.43.41-8.3-5.59s4.45-5.5,8.53-5.45q23.79.29,47.58.52l11.08.55c3.58.17,5.76,2,5.68,5.61s-2.52,5.32-6,5.31C434.23,397.51,428.91,397.34,423.59,397.23Z"/><path class="cls-3" d="M406.06,429.73a236.27,236.27,0,0,0-29.37-6.55c-4.26-.73-7.31-2.32-6.58-7.17s4.47-4.89,8.11-4.22c11.7,2.18,23.36,4.51,35,6.79,5.2,1.14,10.44,2.13,15.59,3.48,3.76,1,6.24,3.42,5.07,7.66s-4.19,5.12-8.19,4.22C419.19,432.46,412.61,431.13,406.06,429.73Z"/><path class="cls-3" d="M215,386.13c3.11,2.12,3,4.95,1.77,8-1.32,3.39-4.25,2.25-6.63,2.29-14,.28-28,.44-42,.64-5.61.19-11.21.44-16.82.54-3.92.07-7-1.14-7.06-5.81s3.34-5,6.72-5.24c4.43-.27,8.87-.39,13.3-.58l6.8.17Z"/><path class="cls-3" d="M179.76,418.66c10.64-3.39,22.18-2.19,32.7-6.61,3.25-1.37,7.82-1.68,8.5,4.05.58,4.85-2.14,6.31-6.52,7.16-9.38,1.82-18.63,4.26-27.94,6.44-6.05,1.58-12.13,3.08-18.15,4.77-4.3,1.22-8.22,1-9.61-3.86-1.58-5.53,2.52-7.27,6.87-8.38C170.32,421,175,419.85,179.76,418.66Z"/><path class="cls-3" d="M340.28,375.23c1.2,9.21-3.74,15.7-9.93,21.36A57.87,57.87,0,0,1,305.94,410c-3.48.91-4.63,2.43-4.38,5.73.17,2.1,0,4.22,0,6.33.15,8.74,2.62,16.39,11.27,20.19,8.85,3.88,17.33,2.58,25.28-2.94,3.26-2.27,6.44-8.27,10.88-2.38,4.15,5.52-.72,9.05-4.6,12-13.22,10.17-34.15,9.3-46-2.27-3-3-4.14-3.22-7.35-.22-11,10.26-28.11,12-41.19,4.8a18.14,18.14,0,0,1-7.29-6.44c-1.83-3.12-2.28-6.35.72-8.89,2.78-2.35,5.12-.63,7.34,1.47,6.26,5.91,13.49,7.91,22,5.75,11.92-3,20.17-18.69,15.73-30.15-.89-2.28-2.76-2.14-4.49-2.68-12.15-3.81-23-9.72-29.75-21-2.74-4.56-6.45-9.55-2.59-15.47l5.51-2.93c25.4-5.47,50.78-6,76.16.09Z"/><path class="cls-3" d="M214.58,306.72c-.06-10.34,7.33-18.23,17.18-18.31,9.55-.09,17.71,8.17,17.81,18,.11,10.23-7.88,19.38-17.1,19.56C222.5,326.19,214.64,317.72,214.58,306.72Z"/><path class="cls-3" d="M376.83,306.45c.12,10.7-7.49,19.46-17,19.55S343,317.92,342.8,307.41c-.2-10.78,6.83-18.94,16.4-19C369,288.29,376.72,296.18,376.83,306.45Z"/><path class="cls-4" d="M340.28,375.23l-7-4.17c3.53-8.11-.19-16-1-23.95-.76-7.73-2.19-15.39-1.92-23.3a114.21,114.21,0,0,1,9.74,33.69C340.88,363.32,343.67,369.3,340.28,375.23Z"/><path class="cls-5" d="M257.07,371l-5.51,2.93c-1.79-14.79,5.84-38.56,11.51-49.2Z"/><path class="cls-6" d="M215,386.13l-43.91.05A195.37,195.37,0,0,1,215,386.13Z"/></svg>