<svg id="Layer_1" data-name="Layer 1" xmlns="http://www.w3.org/2000/svg" viewBox="0 0 600 600"><defs><style>.cls-1{fill:#f01d53;}.cls-2{fill:#f29c2d;}.cls-3{fill:#976045;}.cls-4{fill:#a66f4a;}.cls-5{fill:#e78727;}.cls-6{fill:#fefefe;}.cls-7{fill:#414345;}</style></defs><path class="cls-1" d="M182.79,175.9c-4.41-11.18,1.82-18.62,9.21-25.44,16.67-15.41,37.18-22.68,59-26.64a206.09,206.09,0,0,1,113.4,10.89c46.12,18,75.18,52.69,91.76,98.57,11.23,31.06,14.61,63.61,18.72,96.08,2.73,21.58,3.7,43.28,5.17,64.91,3,43.48,4.82,87,7,130.56,1.13,22.85,1.77,45.72,3,68.55.3,5.71-1,7.57-7.16,7.55q-144.92-.31-289.84,0c-5.6,0-6.87-1.6-6.88-7,0-29.76,1.32-59.5,2.21-89.21,1.07-35.28,2.74-70.56,3.37-105.87,24.41,3.08,47.87-.73,70.61-9.73,16.76-6.1,32.15-14.7,45.1-26.93,26.05-24.58,36.32-55.5,35.71-90.8-.64-37.1-21.92-65.25-57.85-75-29.2-8-59-5-88.69-4.5-7.22-2.32-8.23-10.31-13.31-14.58A5.36,5.36,0,0,0,182.79,175.9Z"/><path class="cls-2" d="M183.24,177.25c5.08,4.27,6.09,12.26,13.31,14.58-2,10.36-1.13,20.91-2.1,31.34-1.17-.63-2.88-4.21-3.08.57-.49,12.15,1.07,24.36-1,36.48-.2,1.24,1.39,1.48,2.48,1.71.18.51.33,1,.46,1.55-1.39,13,2.49,26.51-4,39-4.31,6.52-10.4,10.68-17.39,14-10.79,5.17-22.07,2.34-33.13,2.6-17.39.41-30.78,7.08-38.63,23.18-10.58,8.66-12.06,21.41-15.06,33.47-.48,1.92-.78,4-3.09,4.78-.76-2.75-4-1.42-5.68-4.18C68.12,362.56,62.87,348,61.84,331.92c-2.2-34.23,2.32-67.23,18.15-98.15,4-7.86,8.63-15.16,15.66-20.69,2.27-.18,3.17-1.43,2.82-3.64l-.07.17,1.85-1.85-.16.19,1.85-2,3.13-3.07c1.6,0,3.15,0,3.24-2.23l0,.17c1.21.07,1.78-.56,1.85-1.72l-.07.2,2-1.65-.15.11c1.61.07,3.1,0,3.12-2.19l.07.24,2-1.52-.14.1c3.31.69,6-.93,8.7-2.38,11.48-6.17,24.15-8.22,36.65-11.1C169.28,179.32,176.82,181.45,183.24,177.25Z"/><path class="cls-3" d="M189.38,302.47c6.44-12.48,2.56-26,4-39,23.81,4.77,41.14,18.53,52.83,39.3,15.12,26.85,19.25,56,16.12,86.33-22.74,9-46.2,12.81-70.61,9.73-16.55-1.35-32.73-4.18-47.67-12a16.21,16.21,0,0,1,8.21,1.07c10.78,4,22,5.69,33.32,7.68,9,1.58,9.05-1.95,9.35-8.55,1.23-27.33-3.36-54.5-2.09-81.81C192.9,303,191.18,302.6,189.38,302.47Z"/><path class="cls-4" d="M189.38,302.47c1.8.13,3.52.55,3.41,2.79-1.27,27.31,3.32,54.48,2.09,81.81-.3,6.6-.39,10.13-9.35,8.55-11.3-2-22.54-3.72-33.32-7.68a16.21,16.21,0,0,0-8.21-1.07l.13.05c-.61-1.78-2-1.9-3.57-1.75l.17.12c-.57-1.81-2-2-3.54-1.8l.16.12c-.52-1.8-1.94-1.92-3.46-1.88l.08.08c-.24-2.1-.26-4.57-3.26-1.88a73,73,0,0,1-30.48-37.65c7.85-16.1,21.24-22.77,38.63-23.18,11.06-.26,22.34,2.57,33.13-2.6C179,313.15,185.07,309,189.38,302.47Z"/><path class="cls-5" d="M183.24,177.25c-6.42,4.2-14,2.07-20.91,3.66-12.5,2.88-25.17,4.93-36.65,11.1-2.7,1.45-5.39,3.07-8.7,2.38,14.92-10.84,32.45-13.91,50-16.72,5.22-.83,10.51-1.19,15.77-1.77A5.36,5.36,0,0,1,183.24,177.25Z"/><path class="cls-3" d="M130.71,379.93c3-2.69,3-.22,3.26,1.88Z"/><path class="cls-5" d="M98.47,209.44c.35,2.21-.55,3.46-2.82,3.64A4.84,4.84,0,0,1,98.47,209.44Z"/><path class="cls-3" d="M140.56,385.17c1.55-.15,3,0,3.57,1.75C142.74,386.75,141.26,386.75,140.56,385.17Z"/><path class="cls-3" d="M137.19,383.49c1.56-.16,3,0,3.54,1.8C139.38,385,137.86,385.09,137.19,383.49Z"/><path class="cls-3" d="M133.89,381.73c1.52,0,2.94.08,3.46,1.88Z"/><path class="cls-5" d="M108.31,200.65c-.09,2.19-1.64,2.25-3.24,2.23A3.73,3.73,0,0,1,108.31,200.65Z"/><path class="cls-5" d="M115,195.57c0,2.19-1.51,2.26-3.12,2.19A3.55,3.55,0,0,1,115,195.57Z"/><path class="cls-5" d="M100.25,207.76l-1.85,1.85Z"/><path class="cls-5" d="M101.94,206l-1.85,2Z"/><path class="cls-5" d="M110.12,199.1c-.07,1.16-.64,1.79-1.85,1.72C108.34,199.66,109.12,199.27,110.12,199.1Z"/><path class="cls-5" d="M112.06,197.65l-2,1.65Z"/><path class="cls-5" d="M117.12,194.29l-2,1.52Z"/><path class="cls-6" d="M262.28,389.11c3.13-30.37-1-59.48-16.12-86.33-11.69-20.77-29-34.53-52.83-39.3-.13-.52-.28-1-.46-1.55q.78-19.38,1.58-38.76c1-10.43.14-21,2.1-31.34,29.67-.48,59.49-3.46,88.69,4.5,35.93,9.8,57.21,37.95,57.85,75,.61,35.3-9.66,66.22-35.71,90.8C294.43,374.41,279,383,262.28,389.11ZM291,244.73c-.18-10.36-8.85-19.41-18.34-19.13-10.51.31-19.06,8.91-19,19.2.09,11.23,7.72,18.57,19.61,19C283.58,264.25,291.19,255.52,291,244.73Z"/><path class="cls-5" d="M194.45,223.17q-.8,19.38-1.58,38.76c-1.09-.23-2.68-.47-2.48-1.71,2.05-12.12.49-24.33,1-36.48C191.57,219,193.28,222.54,194.45,223.17Z"/><path class="cls-7" d="M291,244.73c.18,10.79-7.43,19.52-17.7,19.11-11.89-.47-19.52-7.81-19.61-19-.09-10.29,8.46-18.89,19-19.2C282.16,225.32,290.83,234.37,291,244.73Z"/></svg>