<svg id="Layer_1" data-name="Layer 1" xmlns="http://www.w3.org/2000/svg" viewBox="0 0 600 600"><defs><style>.cls-1{fill:#f8f8f8;}.cls-2{fill:#414345;}.cls-3{fill:#ea8f28;}.cls-4{fill:#e78727;}.cls-5{fill:#fefefe;}</style></defs><path class="cls-1" d="M429.59,594.4c-2.86,4.11-6.66,5.18-11.72,5.14-33.69-.26-67.43-1.14-101.08.12-45,1.68-89.89.86-134.83,1.35-8.57.09-17.82,2.23-20.51-9.75l1.23-12.09c4.67-2.48,3.58-5.24.4-8.09.4-2.5.81-5,1.21-7.48,3.93-1.43,3.43-3.12.3-5l.75-3.45c0-.86.1-1.71.16-2.56l-.05,0c4.13-1,3.94-2.74.8-4.93l-.06-2.48c3-1.61,6.15-3.21,1.84-6.81.3-1.47.61-2.94.92-4.41,3-.74,3.3-1.86.47-3.41.53-3.09.69-6.28,2.46-9l2.41-1.48-2-2c.92-3,1.84-6,2.77-9,3-.68,3.54-1.75.57-3.41q2.06-6.08,4.12-12.15c2.39-.49,3.8-1.27.95-3.28,2.51-7,4.71-14.05,7.6-20.85,4.77-11.25,10-22.32,15-33.46,2.73-6.83-2.18-7.1-6.65-7.75v0c.06-2.55-.22-4.81-3.67-4.51-36.11-43.71-38.64-103.89-5.83-150A57.33,57.33,0,0,1,216,252.45c20.53-7,41.63,1.6,49.84,20.87,4.33,10.15,5.52,21,5,31.89-.8,17.49-5.76,34.05-12.06,50.25-2.57,4.82-7,8.93-5.83,15.19.4,1,.81,2.09,1.22,3.13,2.17,6.37,6.68,11,11.75,15,6.47,5.12,13.4,9.64,19.86,14.77,7.91,6.29,14.5,6.45,22.34.11,5.21-4.22,11.22-7.68,15.6-12.62,4.78-5.38,13.83-7.78,13.26-17.28l1.17-3.11c1-6.68-3.79-11.44-5.72-17.15-.59-1.95-1-4.05-3.32-4.77l.18-.2L328,340.68q2-3.37-1.81-4.25c-.3-1-.59-1.92-.88-2.87,1.33-7.32.46-14.22-3.85-20.47l-1-9.11c6.1-2.69,5.85-5.92.83-9.57l.24-4.68c4.27-1.56,3.42-3.84.91-6.37,5.19-25.29,25.86-38.45,50.84-31.59,27.89,7.67,41.1,28.64,47.9,54.94-2.61,2-1.34,2.79,1,3.25.73,3.61,3,7,1.81,10.89-2.36,2.12-.83,2.72,1.23,3.11a4.73,4.73,0,0,1,.34,1.44l1.06,1.62c.06,2.1.11,4.2.17,6.3-4,4.51-4.07,14-.08,18.65-1.72,27.66-11.31,52.6-29.24,73.38-6.39,7.42-8.17,12.29-2.64,19.8-3.13,3.06-.38,2.91,1.7,3.12q1.46,3.12,2.93,6.24c-2.69,3.7-.88,5.45,2.77,6.41,6.33,11.66,9.7,24.39,13.4,37-3.1,1.57-2.69,2.68.45,3.44l1.12,2.79c-3.37,4-1.8,7,1.88,9.65.31.94.61,1.89.92,2.83-3,2.1-3.16,3.81.69,5l.87,2.83c-1.48,5.1-2.71,10.15,2.16,14.29l.78,4.44c-2.71,2.49-3.65,4.77.74,6.45.4,2.49.81,5,1.21,7.46-3.16,2.36-4.19,4.6.35,6.55q.63,4.5,1.27,9c-3.29,2.82-4.33,5.57.29,8.1ZM210.71,315.88c-.24,10.84,5.41,19.28,13.32,19.91s14.43-7.05,15.56-18.06c1.16-11.18-4.63-21.07-12.78-21.83C218.2,295.1,211,304.07,210.71,315.88Zm143.16-1.67c0,2.2-.09,4.27,0,6.33.4,7.22,6.06,14,12.32,14.79,6.79.89,12-2.93,14.65-10.9a25.57,25.57,0,0,0-.26-17.32c-2.05-5.65-5.31-10.15-11.53-11.17-6.59-1.08-10.18,3.26-13.69,8.09C352.88,307.47,354.53,311,353.87,314.21Z"/><path class="cls-2" d="M420,516.64c-.31-.94-.61-1.89-.92-2.83.49-3.43-1.41-6.41-1.88-9.65l-1.12-2.79-.45-3.44c-3.7-12.62-7.07-25.35-13.4-37a12.88,12.88,0,0,0-2.77-6.41q-1.47-3.12-2.93-6.24c-.57-1-1.14-2.08-1.7-3.12-5.53-7.51-3.75-12.38,2.64-19.8C415.4,404.57,425,379.63,426.71,352l.08-18.65c-.06-2.1-.11-4.2-.17-6.3.39-1-.28-1.36-1.06-1.62a4.73,4.73,0,0,0-.34-1.44c.23-1.29.41-2.56-1.23-3.11,1.23-3.94-1.08-7.28-1.81-10.89.23-1.26.36-2.49-1-3.25-6.8-26.3-20-47.27-47.9-54.94-25-6.86-45.65,6.3-50.84,31.59-1.94,1.89-.76,4.22-.91,6.37l-.24,4.68c-2.14,3-1.78,6.27-.83,9.57l1,9.11c-1.48,7.34.92,14,3.85,20.47.29.95.58,1.91.88,2.87a5.09,5.09,0,0,0,1.81,4.25q.66,3.93,1.31,7.86c-2.43.7-2.93-1.59-4-2.75-6.2-6.55-12.32-13.16-19.51-18.66-9.63-7.36-10.87-7.34-20.14.77-2.91,2.54-5.64,5.29-8.32,8.07-6.21,6.45-12.34,13-18.51,19.49,6.3-16.2,11.26-32.76,12.06-50.25.51-10.93-.68-21.74-5-31.89-8.21-19.27-29.31-27.92-49.84-20.87a57.33,57.33,0,0,0-28.85,21.27C154.37,319.86,156.9,380,193,423.75c1.22,1.5,2.45,3,3.67,4.51v0q3.32,3.88,6.65,7.75c-5,11.14-10.25,22.21-15,33.46-2.89,6.8-5.09,13.89-7.6,20.85-.32,1.09-.64,2.19-.95,3.28q-2.07,6.07-4.12,12.15l-.57,3.41c-.93,3-1.85,6-2.77,9l-.41,3.44c-1.77,2.75-1.93,5.94-2.46,9-.15,1.14-.31,2.27-.47,3.41-.31,1.47-.62,2.94-.92,4.41,0,2.44-3.57,3.91-1.84,6.81l.06,2.48c-.27,1.64-.53,3.28-.8,4.93l.05,0c-1.68.75-1.34,1.63-.16,2.56l-.75,3.45-.3,5c-.4,2.49-.81,5-1.21,7.48q-.21,4-.4,8.09l-1.23,12.09c1,8.23-2.39,10.49-10.77,10.12-18.28-.82-18-.24-17.19-18.37,1.07-24.59,1.6-49.2,2.3-73.81,1.08-37.81,1.09-75.69,3.45-113.42,2.15-34.36,2.86-69,12.14-102.62,10.14-36.69,27.8-68.3,60.6-89.4,31.38-20.19,66.15-25.69,102.77-21.82,33.74,3.57,62.91,16.85,86.9,41.07,21.06,21.27,32.12,47.62,37.9,76.38,4.92,24.49,7.25,49.36,9.74,74.22,1.69,16.85,3.06,33.71,4.42,50.56,4.22,52.53,7.13,105.13,7.81,157.84.08,6.13,3.75,14.16-.12,17.88-4.11,4-12.32.82-18.72,1.22-1.81.11-3.68-.25-5.44.06-5.5,1-8.24-1-7.65-6.77l-1.23-13.68c-.1-2.7-.19-5.4-.29-8.1q-.65-4.51-1.27-9l-.35-6.55c-.4-2.48-.81-5-1.21-7.46.1-2.19.81-4.45-.74-6.45l-.78-4.44c.3-4.92-1.39-9.53-2.16-14.29l-.87-2.83Z"/><path class="cls-3" d="M258.82,355.46c6.17-6.5,12.3-13,18.51-19.49,2.68-2.78,5.41-5.53,8.32-8.07,9.27-8.11,10.51-8.13,20.14-.77,7.19,5.5,13.31,12.11,19.51,18.66,1.09,1.16,1.59,3.45,4,2.75l-.17.2c-.53,2.73,1.11,3.94,3.32,4.77,1.93,5.71,6.71,10.47,5.72,17.15a485.84,485.84,0,0,0-85.2,0C251.82,364.39,256.25,360.28,258.82,355.46Z"/><path class="cls-3" d="M337,373.77c.57,9.5-8.48,11.9-13.26,17.28-4.38,4.94-10.39,8.4-15.6,12.62-7.84,6.34-14.43,6.18-22.34-.11-6.46-5.13-13.39-9.65-19.86-14.77-5.07-4-9.58-8.64-11.75-15C281.81,376.05,309.42,373.72,337,373.77Z"/><path class="cls-2" d="M210.71,315.88c.26-11.81,7.49-20.78,16.1-20,8.15.76,13.94,10.65,12.78,21.83-1.13,11-7.75,18.68-15.56,18.06S210.47,326.72,210.71,315.88Z"/><path class="cls-2" d="M353.87,314.21c.66-3.26-1-6.74,1.51-10.18,3.51-4.83,7.1-9.17,13.69-8.09,6.22,1,9.48,5.52,11.53,11.17a25.57,25.57,0,0,1,.26,17.32c-2.68,8-7.86,11.79-14.65,10.9-6.26-.81-11.92-7.57-12.32-14.79C353.78,318.48,353.87,316.41,353.87,314.21Z"/><path class="cls-4" d="M337,373.77c-27.6,0-55.21,2.28-82.81,0-.41-1-.82-2.09-1.22-3.13a485.84,485.84,0,0,1,85.2,0Z"/><path class="cls-5" d="M325.32,333.56c-2.93-6.52-5.33-13.13-3.85-20.47C325.78,319.34,326.65,326.24,325.32,333.56Z"/><path class="cls-5" d="M426.79,333.32,426.71,352C422.72,347.28,422.76,337.83,426.79,333.32Z"/><path class="cls-5" d="M320.45,304c-.95-3.3-1.31-6.54.83-9.57C326.3,298.06,326.55,301.29,320.45,304Z"/><path class="cls-5" d="M421.56,524.42c.77,4.76,2.46,9.37,2.16,14.29C418.85,534.57,420.08,529.52,421.56,524.42Z"/><path class="cls-5" d="M203.32,436q-3.33-3.87-6.65-7.75C201.14,428.89,206.05,429.16,203.32,436Z"/><path class="cls-5" d="M417.2,504.16c.47,3.24,2.37,6.22,1.88,9.65C415.4,511.19,413.83,508.15,417.2,504.16Z"/><path class="cls-5" d="M162.68,579.17q.19-4,.4-8.09C166.26,573.93,167.35,576.69,162.68,579.17Z"/><path class="cls-5" d="M428.07,572.62c.1,2.7.19,5.4.29,8.1C423.74,578.19,424.78,575.44,428.07,572.62Z"/><path class="cls-5" d="M166.19,545.26c-1.73-2.9,1.85-4.37,1.84-6.81C172.34,542.05,169.22,543.65,166.19,545.26Z"/><path class="cls-5" d="M321.52,289.73c.15-2.15-1-4.48.91-6.37C324.94,285.89,325.79,288.17,321.52,289.73Z"/><path class="cls-5" d="M399.46,454.51a12.88,12.88,0,0,1,2.77,6.41C398.58,460,396.77,458.21,399.46,454.51Z"/><path class="cls-5" d="M426.45,557.06l.35,6.55C422.26,561.66,423.29,559.42,426.45,557.06Z"/><path class="cls-5" d="M424.5,543.15c1.55,2,.84,4.26.74,6.45C420.85,547.92,421.79,545.64,424.5,543.15Z"/><path class="cls-5" d="M420,516.64l.69,5C416.84,520.45,417,518.74,420,516.64Z"/><path class="cls-5" d="M165.45,552.67c.27-1.65.53-3.29.8-4.93C169.39,549.93,169.58,551.65,165.45,552.67Z"/><path class="cls-5" d="M164.29,563.6l.3-5C167.72,560.48,168.22,562.17,164.29,563.6Z"/><path class="cls-5" d="M196.68,428.26c-1.22-1.51-2.45-3-3.67-4.51C196.46,423.45,196.74,425.71,196.68,428.26Z"/><path class="cls-5" d="M175.06,509.14l.57-3.41C178.6,507.39,178,508.46,175.06,509.14Z"/><path class="cls-5" d="M171.88,521.6l.41-3.44,2,2Z"/><path class="cls-5" d="M421.17,306.71c1.37.76,1.24,2,1,3.25C419.83,309.5,418.56,308.71,421.17,306.71Z"/><path class="cls-5" d="M169,534c.16-1.14.32-2.27.47-3.41C172.25,532.18,172,533.3,169,534Z"/><path class="cls-5" d="M424,320.85c1.64.55,1.46,1.82,1.23,3.11C423.16,323.57,421.63,323,424,320.85Z"/><path class="cls-5" d="M328,340.68a5.09,5.09,0,0,1-1.81-4.25Q330,337.3,328,340.68Z"/><path class="cls-5" d="M179.75,493.58c.31-1.09.63-2.19.95-3.28C183.55,492.31,182.14,493.09,179.75,493.58Z"/><path class="cls-2" d="M332.47,353.51c-2.21-.83-3.85-2-3.32-4.77C331.51,349.46,331.88,351.56,332.47,353.51Z"/><path class="cls-5" d="M394.83,445.15c.56,1,1.13,2.08,1.7,3.12C394.45,448.06,391.7,448.21,394.83,445.15Z"/><path class="cls-5" d="M415.63,497.93l.45,3.44C412.94,500.61,412.53,499.5,415.63,497.93Z"/><path class="cls-5" d="M165.34,555.18c-1.18-.93-1.52-1.81.16-2.56C165.44,553.47,165.39,554.32,165.34,555.18Z"/><path class="cls-5" d="M425.56,325.4c.78.26,1.45.59,1.06,1.62Z"/></svg>