<svg id="Layer_1" data-name="Layer 1" xmlns="http://www.w3.org/2000/svg" viewBox="0 0 600 600"><defs><style>.cls-1{fill:#f29c2d;}.cls-2{fill:#414345;}.cls-3{fill:#e78727;}.cls-4{fill:#ea8f28;}.cls-5{fill:#f9af98;}.cls-6{fill:#976045;}</style></defs><path class="cls-1" d="M99,336.75c1-10.22,5.55-19.3,9.16-28.69,1-2.5,3.1-4.64,2.57-7.66.22-.35.43-.71.64-1.07l-1.3.19.21-.32a1.81,1.81,0,0,0-1.5-2l.1.13c.07-1.59,0-3.08-2.18-3.08h-.08c1-2.69-.23-3.71-2.76-3.81l.06.06c.06-3,.34-6.07-3.92-6.37l.2-.05-1.46-2,.08.11c.66-5.48-3-9.46-5.06-13.92-9.07-19.27-13.51-39.06-10.25-60.6,1.21-8,5.84-15.11,5.24-23.39l-.08.12c1.67-.62,1.84-2,1.77-3.49l-.07.08c3.76,0,3.62-2.56,3.39-5.17l-.09.14,1.59-2-.16.1a1.6,1.6,0,0,0,1.7-1.87l-.21-.18,1.35.08-.74-1.05c16-19.48,38.48-24.17,60.46-11.94a132.59,132.59,0,0,1,32.26,25l1.84,1.95-.09-.17c0,3.64,1.49,5.56,5.39,4.77l-.16,0a1.61,1.61,0,0,0,1.85,1.73l-.09-.09c0,1.2.57,1.79,1.8,1.65l-.46.27.41-.34c0,2.15,1.54,2.22,3.09,2.25,3,1.19,4,5.57,8.07,4.93a2.43,2.43,0,0,0,2.76,1.29c15.86-4,31.82-7.45,48.15-8.71,13.82-1.07,27.76-2.9,41.49-2,10.28.7,20.51.87,30.77,1.07a3.35,3.35,0,0,1,1.43.28c6.58,1.88,13,5.26,20.06,1.71,3.29.56,6.91.4,9.8,1.79,10.65,5.12,17.71,1,25.07-7A149.74,149.74,0,0,1,428.37,160c32.17-18.09,65.41-3.12,74.42,32.7,9.23,36.64-3.3,66.76-26.34,94-3.16,3.74-3.07,6-1.25,9.91,5.9,12.55,11.05,25.41,13.84,39.09-5,1.64-10,3.14-15,5C460,345.85,445.86,351,432.52,358c-4.37,2.28-8.12,5.9-5.67,11.46,2.6,5.92,7.34,3.36,11.44,1.8q26.5-10.1,53-20.32c1.75,3.22,1.23,6.69,1,10.11a92.14,92.14,0,0,0,0,36.84c-.09,1.21-.17,2.43-.26,3.64-12.32-4.55-25.18-6.79-38.11-8.47-17.81-2.33-35.7-3-53.6-.79-4.8.59-9.11,2.52-8.67,8.23.46,6,4.86,7.43,10.27,7.24,29.52-1.05,58.77.41,87.14,9.69-3,13.73-9.58,25.62-18.37,36.4-19.44-13.91-40.93-23.85-63-32.66-3.47-1.38-6.51-1.53-9.31,1-2.25,2.07-2.74,4.77-2.23,7.69.76,4.33,4.54,5.29,7.74,6.89,18.92,9.5,39.16,16.41,56.66,28.72-8.35,9.91-18.85,17.36-29,25.13-3,2.28-4,4-3.15,8.1,5.91,29.7,11.32,59.49,16.9,89.26-.47.66-1.47,1.5-1.32,2,2.82,9-3.17,8.11-8.78,8.07q-25.84-.15-51.69,0c-2.92,0-6.17-1.12-8.67,1.55h-3.46c-2.81-2.82-6.37-1.54-9.57-1.54q-104.07-.12-208.15-.06c-2,0-3.92-.08-5.87,0-3.76.17-4.68-1-3.76-5,3.88-16.77,6.13-33.86,9.28-50.78,1.6-8.6,7.4-17.16,3-26.55.16-1.16.32-2.33.47-3.49,4.1-1.44,3.22-3.89,1.35-6.56.09-.61.18-1.22.28-1.84,3.43-.87,3.62-2.57,1.27-4.93L156,494.13c-.49-2-1.53-3.33-3.78-3.3l-.11.23c0-.45,0-.89,0-1.34l-1,.73a132.46,132.46,0,0,1-25.26-23.2A139.64,139.64,0,0,1,147,452.39a358,358,0,0,1,31.81-16.88c4.26-1.93,6.69-5.4,4.47-10.21s-5.87-6.62-11-4.36c-20,8.86-39.57,18.37-55.24,34.2A109.19,109.19,0,0,1,100,418.64c5.13-1.3,10.26-2.63,15.4-3.88,23.5-5.69,47.38-7.32,71.46-6.59,5.23.16,9-1.56,9.36-7.09.28-5-3.13-7.55-7.8-8.19a132.57,132.57,0,0,0-15-1.48,255.53,255.53,0,0,0-77.62,10.53c-2.83-16.51-3.25-33-.19-49.54,17.25,6.37,34.47,12.83,51.77,19.06,5,1.8,10.92,3.84,13.88-2.65,3.19-7-2.89-9.13-7.69-11.38A426.05,426.05,0,0,0,99,336.75Zm152.57,49.3c-4.44,9.6-2.11,18,4.92,25.24,8,8.21,16.65,15.8,26.74,21.45,2,1.14,3.56,1.88,4,4.64,2.44,15.64-8.76,28.61-24.54,27.8-10.42-.53-18.12-5.26-21.64-15.54-1.38-4-3.84-6.18-8.22-4.92-4.55,1.32-6.12,4.73-5.33,9.09a25.32,25.32,0,0,0,2.55,7.06c10.51,20.07,42.46,25.82,58.61,10.07,4.44-4.33,6-3.54,10.12.13,17.92,16,50.63,6.94,58.5-15.8,1.46-4.21,1.78-8.36-3.05-10.88-5.05-2.63-7.83.37-10.17,4.26-.86,1.44-1.51,3-2.41,4.41a24.78,24.78,0,0,1-28.09,10c-8.06-2.49-12.3-10.13-12.7-21.55-.18-5.09,1.31-8,6.06-10.48,9.29-4.86,16.3-12.62,22.94-20.64,6.28-7.59,8.08-15.7,3.48-24.76-.82-5.16-4.29-7.6-9-8.65-21.21-4.72-42.5-4.09-63.83-.95C254.61,376.87,251.38,380,251.52,386.05Zm43.82-164.83c-22.44-.57-43.88,4-64.56,12.5-4.93,2-8.12,5.49-5.95,11.13,2.26,5.9,6.83,5.57,11.81,3.53,10.89-4.46,22.05-8.15,33.71-9.93,5.51-.84,12.6-3.32,16.28-.92,4,2.61,0,10.15.83,15.51.08.54-.07,1.13,0,1.67.88,5.17-1.35,6.87-6.46,6.79-10.94-.18-21.74,1.51-32.53,3.28-6.42,1.05-7.59,4.92-6.76,10.25.88,5.61,4,7,9.64,5.9,8.77-1.75,17.74-2.45,26.59-3.76,6.59-1,10.92-.06,9.44,8.36-.66,3.79-.27,7.84.12,11.72a6.55,6.55,0,0,0,5.9,6.22c3.58.46,5.83-1.83,7-4.91a36.47,36.47,0,0,0,1.93-15.73c-.39-5,1.65-6.36,6.27-5.74,10.25,1.38,20.55,2.41,30.63,4.89,4.95,1.21,9.77,1.65,10.83-5.25.95-6.21-1.08-10.4-7.88-11.3-7.76-1-15.56-1.89-23.26-3.31-5.35-1-12.78,2.14-15.61-2.61-2.51-4.19-.36-10.95-1.07-16.47-.83-6.47,2.46-6.8,7.31-6.16,14.17,1.85,28.18,4.26,41.63,9.38,2.73,1,5.66,2.71,8.81.66,2.75-1.8,4.71-4,4.57-7.48-.19-4.77-3.68-6.61-7.49-8A174.55,174.55,0,0,0,295.34,221.22ZM467.5,225c-.25-4.15,0-8.3-1.25-12.43-4.7-15.22-14.72-19.23-28.12-10.8-6.88,4.33-12.82,9.85-18.49,15.7-3.64,3.77-4.05,7.27.11,10.67,9.77,8,18.14,17.4,26.51,26.76,4.2,4.69,7.37,3.65,10.85-.6C464.11,245.76,468.06,236.19,467.5,225ZM119,223.09c.44,11.75,5.16,22,12.18,31.35,2.93,3.92,5.29,3.8,8.55.11,5.56-6.27,11.53-12.19,17.43-18.16,14.89-15,14.66-17.59-3-30.34-.46-.32-.93-.63-1.38-1-6.9-5-14.42-8.18-22.67-4.16C121.15,205.3,119.47,213.93,119,223.09ZM227.62,324.38c.21-12.11-8.18-22.36-18.17-22.21-10.27.16-18,10.08-17.59,22.56.46,13.58,8.55,22.33,19.58,21.14C220.47,344.9,227.44,335.65,227.62,324.38Zm136.83-.06c0,12.95,6.89,21.72,17.08,21.85,10.72.14,18.56-8.46,18.66-20.46.11-12.73-8.16-23.06-18.35-22.93C371.28,302.91,364.42,311.42,364.45,324.32Z"/><path class="cls-2" d="M95.83,401.94a255.53,255.53,0,0,1,77.62-10.53,132.57,132.57,0,0,1,15,1.48c4.67.64,8.08,3.19,7.8,8.19-.32,5.53-4.13,7.25-9.36,7.09-24.08-.73-48,.9-71.46,6.59-5.14,1.25-10.27,2.58-15.4,3.88C97.28,413.4,97,407.57,95.83,401.94Z"/><path class="cls-2" d="M489.06,417.39c-28.37-9.28-57.62-10.74-87.14-9.69-5.41.19-9.81-1.22-10.27-7.24-.44-5.71,3.87-7.64,8.67-8.23,17.9-2.23,35.79-1.54,53.6.79,12.93,1.68,25.79,3.92,38.11,8.47Z"/><path class="cls-2" d="M460.53,465.47c-17.5-12.31-37.74-19.22-56.66-28.72-3.2-1.6-7-2.56-7.74-6.89-.51-2.92,0-5.62,2.23-7.69,2.8-2.57,5.84-2.42,9.31-1,22.09,8.81,43.58,18.75,63,32.66C467.75,458.08,464.71,462.27,460.53,465.47Z"/><path class="cls-2" d="M117.1,455.14c15.67-15.83,35.26-25.34,55.24-34.2,5.11-2.26,8.81-.33,11,4.36s-.21,8.28-4.47,10.21A358,358,0,0,0,147,452.39a139.64,139.64,0,0,0-21.23,14.86A30.73,30.73,0,0,1,117.1,455.14Z"/><path class="cls-2" d="M99,336.75a426.05,426.05,0,0,1,54.65,20.68c4.8,2.25,10.88,4.38,7.69,11.38-3,6.49-8.89,4.45-13.88,2.65-17.3-6.23-34.52-12.69-51.77-19.06A36.38,36.38,0,0,1,99,336.75Z"/><path class="cls-2" d="M491.26,350.9q-26.49,10.17-53,20.32c-4.1,1.56-8.84,4.12-11.44-1.8-2.45-5.56,1.3-9.18,5.67-11.46,13.34-6.95,27.47-12.11,41.56-17.32,4.92-1.82,10-3.32,15-5Z"/><path class="cls-3" d="M156.24,515.66c4.42,9.39-1.38,18-3,26.55-3.15,16.92-5.4,34-9.28,50.78-.92,4,0,5.15,3.76,5,1.95-.09,3.91,0,5.87,0q104.07,0,208.15.06c3.2,0,6.76-1.28,9.57,1.54q-112.84.11-225.69.32c-5,0-5.42-1.86-4.67-5.74Q148.64,554.92,156.24,515.66Z"/><path class="cls-4" d="M334.69,192.69c-10.26-.2-20.49-.37-30.77-1.07-13.73-.93-27.67.9-41.49,2-16.33,1.26-32.29,4.76-48.15,8.71a2.43,2.43,0,0,1-2.76-1.29c15.36-5.95,31.62-7.9,47.75-9.63,15.65-1.68,31.52-3.61,47.22-1.77C315.88,190.71,325.6,189.09,334.69,192.69Z"/><path class="cls-4" d="M88.7,184.22c.6,8.28-4,15.37-5.24,23.39-3.26,21.54,1.18,41.33,10.25,60.6,2.09,4.46,5.72,8.44,5.06,13.92-18.91-30.18-25.49-61.85-11.56-96A9.33,9.33,0,0,1,88.7,184.22Z"/><path class="cls-3" d="M374.79,599.56c2.5-2.67,5.75-1.53,8.67-1.55q25.85-.15,51.69,0c5.61,0,11.6,1,8.78-8.07-.15-.47.85-1.31,1.32-2,.51,1.87,1,3.74,1.54,5.6,1.23,4.44.23,6.4-5.05,6.32C419.43,599.54,397.11,599.63,374.79,599.56Z"/><path class="cls-3" d="M492.29,397.85a92.14,92.14,0,0,1,0-36.84A257.37,257.37,0,0,1,492.29,397.85Z"/><path class="cls-4" d="M356.18,194.68c-7,3.55-13.48.17-20.06-1.71C343,191.32,349.54,193.58,356.18,194.68Z"/><path class="cls-4" d="M197,190.57c-3.9.79-5.41-1.13-5.39-4.77A10,10,0,0,1,197,190.57Z"/><path class="cls-3" d="M158.06,505.61c1.87,2.67,2.75,5.12-1.35,6.56Z"/><path class="cls-4" d="M100,284.11c4.26.3,4,3.4,3.92,6.37A12,12,0,0,1,100,284.11Z"/><path class="cls-4" d="M93.71,175.76c.23,2.61.37,5.16-3.39,5.17A6.58,6.58,0,0,1,93.71,175.76Z"/><path class="cls-3" d="M159.61,498.84c2.35,2.36,2.16,4.06-1.27,4.93Z"/><path class="cls-4" d="M103.81,290.42c2.53.1,3.8,1.12,2.76,3.81Z"/><path class="cls-3" d="M152.21,490.83c2.25,0,3.29,1.31,3.78,3.3C154.37,493.44,152.75,492.75,152.21,490.83Z"/><path class="cls-4" d="M203.45,196.08c-1.55,0-3.07-.1-3.09-2.25A3.78,3.78,0,0,1,203.45,196.08Z"/><path class="cls-4" d="M90.39,180.85c.07,1.5-.1,2.87-1.77,3.49C88.8,183,89,181.62,90.39,180.85Z"/><path class="cls-4" d="M106.65,294.22c2.17,0,2.25,1.49,2.18,3.08A3.56,3.56,0,0,1,106.65,294.22Z"/><path class="cls-3" d="M151.07,490.45l1-.73c0,.45,0,.89,0,1.34A1,1,0,0,1,151.07,490.45Z"/><path class="cls-4" d="M98.69,282l1.46,2Z"/><path class="cls-4" d="M200.41,193.9c-1.23.14-1.8-.45-1.8-1.65Z"/><path class="cls-4" d="M198.7,192.34a1.61,1.61,0,0,1-1.85-1.73Z"/><path class="cls-4" d="M108.73,297.17a1.81,1.81,0,0,1,1.5,2Z"/><path class="cls-4" d="M110,299.52l1.3-.19c-.21.36-.42.72-.64,1.07A.83.83,0,0,1,110,299.52Z"/><path class="cls-4" d="M191.71,186,189.87,184Z"/><path class="cls-4" d="M95.21,173.86l-1.59,2C94.14,175.22,94.68,174.54,95.21,173.86Z"/><path class="cls-4" d="M96.75,172.09a1.6,1.6,0,0,1-1.7,1.87Z"/><path class="cls-4" d="M97.15,170.94l.74,1.05-1.35-.08A.91.91,0,0,1,97.15,170.94Z"/><path class="cls-2" d="M295.34,221.21a174.79,174.79,0,0,1,61.74,10.26c3.81,1.36,7.3,3.2,7.49,8,.14,3.46-1.82,5.68-4.57,7.48-3.15,2.05-6.08.38-8.81-.66-13.45-5.12-27.46-7.53-41.63-9.38-4.85-.64-8.14-.31-7.31,6.16.71,5.52-1.44,12.28,1.07,16.47,2.83,4.75,10.26,1.63,15.61,2.61,7.7,1.42,15.5,2.28,23.26,3.31,6.8.9,8.83,5.09,7.88,11.3-1.06,6.9-5.88,6.46-10.83,5.25-10.08-2.48-20.38-3.51-30.63-4.89-4.62-.62-6.66.7-6.27,5.74a36.47,36.47,0,0,1-1.93,15.73c-1.16,3.08-3.41,5.37-7,4.91a6.55,6.55,0,0,1-5.9-6.22c-.39-3.88-.78-7.93-.12-11.72,1.48-8.42-2.85-9.33-9.44-8.36-8.85,1.31-17.82,2-26.59,3.76-5.64,1.13-8.76-.29-9.64-5.9-.83-5.33.34-9.2,6.76-10.25,10.79-1.77,21.59-3.46,32.53-3.28,5.11.08,7.34-1.62,6.46-6.79-.09-.54.06-1.13,0-1.67-.81-5.36,3.19-12.9-.83-15.51-3.68-2.4-10.77.08-16.28.92-11.66,1.78-22.82,5.47-33.71,9.93-5,2-9.55,2.37-11.81-3.53-2.17-5.64,1-9.11,5.95-11.13C251.46,225.26,272.9,220.65,295.34,221.21Z"/><path class="cls-2" d="M333.28,385.61c4.6,9.06,2.8,17.17-3.48,24.76-6.64,8-13.65,15.78-22.94,20.64-4.75,2.48-6.24,5.39-6.06,10.48.4,11.42,4.64,19.06,12.7,21.55a24.78,24.78,0,0,0,28.09-10c.9-1.4,1.55-3,2.41-4.41,2.34-3.89,5.12-6.89,10.17-4.26,4.83,2.52,4.51,6.67,3.05,10.88-7.87,22.74-40.58,31.76-58.5,15.8-4.12-3.67-5.68-4.46-10.12-.13-16.15,15.75-48.1,10-58.61-10.07a25.32,25.32,0,0,1-2.55-7.06c-.79-4.36.78-7.77,5.33-9.09,4.38-1.26,6.84.88,8.22,4.92,3.52,10.28,11.22,15,21.64,15.54,15.78.81,27-12.16,24.54-27.8-.43-2.76-2-3.5-4-4.64-10.09-5.65-18.72-13.24-26.74-21.45-7-7.2-9.36-15.64-4.92-25.23,3.18,5.56,8,9.15,13.26,12.78,8.42,5.78,16,12.89,23.58,19.78,3.63,3.29,6.37,2.79,10.08.2C311.77,409.52,323.09,398.18,333.28,385.61Z"/><path class="cls-5" d="M333.28,385.61c-10.19,12.57-21.51,23.91-34.84,33.21-3.71,2.59-6.45,3.09-10.08-.2-7.61-6.89-15.16-14-23.58-19.78-5.3-3.63-10.08-7.22-13.26-12.78-.14-6.11,3.09-9.19,8.92-10.05,21.33-3.14,42.62-3.77,63.83.95C329,378,332.46,380.45,333.28,385.61Z"/><path class="cls-6" d="M467.5,225c.56,11.2-3.39,20.77-10.39,29.3-3.48,4.25-6.65,5.29-10.85.6-8.37-9.36-16.74-18.76-26.51-26.76-4.16-3.4-3.75-6.9-.11-10.67,5.67-5.85,11.61-11.37,18.49-15.7,13.4-8.43,23.42-4.42,28.12,10.8C467.53,216.69,467.25,220.84,467.5,225Z"/><path class="cls-6" d="M119,223.09c.52-9.16,2.2-17.79,11.15-22.16,8.25-4,15.77-.83,22.67,4.16.45.33.92.64,1.38,1,17.62,12.75,17.85,15.3,3,30.34-5.9,6-11.87,11.89-17.43,18.16-3.26,3.69-5.62,3.81-8.55-.11C124.11,245.06,119.39,234.84,119,223.09Z"/><path class="cls-2" d="M227.62,324.38c-.18,11.27-7.15,20.52-16.18,21.49-11,1.19-19.12-7.56-19.58-21.14-.41-12.48,7.32-22.4,17.59-22.56C219.44,302,227.83,312.27,227.62,324.38Z"/><path class="cls-2" d="M364.45,324.32c0-12.9,6.83-21.41,17.39-21.54,10.19-.13,18.46,10.2,18.35,22.93-.1,12-7.94,20.6-18.66,20.46C371.34,346,364.49,337.27,364.45,324.32Z"/></svg>