<svg id="Layer_1" data-name="Layer 1" xmlns="http://www.w3.org/2000/svg" viewBox="0 0 570.25 536.19"><defs><style>.cls-1{fill:#e27036;}</style></defs><path class="cls-1" d="M-294.45,278.5c-27.15,0-54.3-.05-81.44,0-18,.05-35.81-1.37-52.91-7.15a115.42,115.42,0,0,1-36.15-20.16c-15.86-12.93-24.88-29.81-28.67-49.34-3.38-17.43-.11-34.41,6.87-50.73,7.84-18.34,19.9-33.58,34.74-46.59,9.8-8.58,19.89-16.81,29-26.13,13.16-13.41,24-28.63,33.52-44.67C-375.69,10.66-356.78-5.9-331.32-15c12-4.3,24.33-7.13,36.93-6.71,25.1.83,48,8.51,67.76,24.58A106.1,106.1,0,0,1-197.7,39.61a139.26,139.26,0,0,0,32.54,43.47c7.43,6.64,15.62,12.43,23.54,18.51a126.64,126.64,0,0,1,30.81,34.65,108.71,108.71,0,0,1,14.44,37.09c3.77,20.09-.17,39.06-10.57,56.61-14.93,25.18-38.61,37.63-65.94,44.54-11.84,3-24,4-36.13,4Q-251.73,278.57-294.45,278.5Z" transform="translate(580.24 257.67)"/><path class="cls-1" d="M-316-156.3A218.38,218.38,0,0,1-315-128.06c-.68,25.41-7.21,49.14-22.37,69.72-14.39,19.55-33.75,31-58.73,30.3-14.34-.4-26.81-6.38-37.88-15.37-21.14-17.16-30.31-40.39-35.14-66.34-4.52-24.33.76-46.74,11.12-68.33a174.68,174.68,0,0,1,27.21-40.46c11.59-13,24.38-24.39,39.85-32.36,10.27-5.28,21.15-8.43,33.12-5.75,10.59,2.36,17.49,8.93,23.05,17.66,8.5,13.35,11.82,28.41,14.77,43.61C-317.49-182.47-316.9-169.37-316-156.3Z" transform="translate(580.24 257.67)"/><path class="cls-1" d="M-275.26-131.88c1.09-17.25,1.35-34.61,3.49-51.73,2.24-17.88,5.9-35.54,14.62-51.85,10.32-19.34,27.31-26.61,48.1-19.59,12.61,4.25,23.21,11.56,33.3,20.11a174,174,0,0,1,42.92,55.07c6.84,13.55,11.72,27.8,12.89,43.24,2.29,30.3-5.49,57.38-24.19,81.43-10.35,13.29-23.54,22.43-39.83,26-17.62,3.88-34.29-.09-49-10.37-15.61-10.87-26.22-25.8-32.94-43.48a121.34,121.34,0,0,1-8.25-36.55C-274.43-123.65-274.92-127.76-275.26-131.88Z" transform="translate(580.24 257.67)"/><path class="cls-1" d="M-579.88,5.67c-.63-23.29,4.29-44.32,13.42-64.32,5.58-12.22,13.17-23.42,24.76-30.6,13.23-8.2,24.8-7.74,41.29,2.53,12.27,7.65,21,18.94,29.22,30.41A213,213,0,0,1-439.82,6.33c3.13,10.25,5.45,20.73,4.71,31.35-1.44,20.44-6.56,39.76-22.5,54.22-13,11.84-28.43,15.64-46,13.22-18.89-2.6-33.66-12.45-46.56-25.22C-565.23,65-574.67,46.54-578.7,25.72-580,18.84-580.7,11.65-579.88,5.67Z" transform="translate(580.24 257.67)"/><path class="cls-1" d="M-10.19,3.18C-9,22-12.89,39.84-22.23,56.09-34.61,77.61-50.9,95.37-75.56,102.85c-22.49,6.81-43.31,3.87-60-14.15-9.55-10.3-15.18-22.85-17.37-36.64-4.09-25.69,1.69-49.53,13.52-72.49,10.93-21.18,22.44-41.8,39.93-58.42,8.71-8.26,18.63-14.63,30.83-15.79,9.55-.91,18,2.62,25.21,9C-25.78-70.09-18-49.34-13-27.11-10.8-17.1-9.5-7-10.19,3.18Z" transform="translate(580.24 257.67)"/></svg>